<svg xmlns="http://www.w3.org/2000/svg" width="21" height="27" viewBox="0 0 128 128"><path d="M100 48H82.949l23.707-35.563A7.999 7.999 0 0 0 100 0H60a7.997 7.997 0 0 0-6.945 4.031l-32 56a7.997 7.997 0 0 0 .027 7.984A7.99 7.99 0 0 0 28 72h26.215l-25.161 44.031a8.005 8.005 0 0 0 2.09 10.328A7.97 7.97 0 0 0 35.996 128a7.967 7.967 0 0 0 5.66-2.344l64-64A7.997 7.997 0 0 0 100 48zm-64 72l29.125-50.969V68c0-2.211-1.789-4-4-4H28L60 8h40L72.418 49.375S71.5 51.031 71.5 52c0 2.211 1.789 4 4 4H100l-64 64z" fill="#787878"/></svg>