<svg xmlns="http://www.w3.org/2000/svg" style="display:none"><symbol id="yellow-media-logo-light1" viewbox="0 0 125.96147 26.043867"><g fill-rule="evenodd"><path d="M12.156.185h-.92v.184h-.553v.185h-.553V.74h-.368v.185h-.553v.184h-.368v.185h-.369v.185h-.368v.184H7.92v.185H7.55v.185h-.184v.185H7V2.4h-.184v.185h-.369v.185h-.184v.184h-.184v.185h-.184v.185H5.71v.184h-.185v.185h-.184v.185h-.184v.185h-.184v.184h-.184v.185h-.184v.185H4.42v.184h-.184v.37h-.184v.185h-.184v.184h-.184v.37h-.185v.37h-.184v.184h-.184v.37h-.184v.369h-.184v.37h-.184v.368h-.185v.555H2.21v.554h-.184v.184h-.184v.185h-.184v.185h-.185v.185H1.29v.184h-.184v.185H.921v.185H.737v.37H.553v.369H.368v.369H.184v.37H0v2.216h.184v.554h.184v.37h.185v.369h.184v.37H.92v.184h.184v.185h.184v.184h.184v.185h.185v.185h.184v.184h.184v.185h.184v.554h.184v.37h.185v.554h.184v.37h.184v.369h.184v.37h.184v.184H3.5v.37h.185v.184h.184v.37h.184v.184h.184v.185h.184v.37h.185v.184h.184v.185h.184v.184h.184v.185h.184v.185h.184v.184h.185v.185h.184v.185h.184v.185h.184v.184h.369v.185h.184v.185h.184v.184h.368v.185h.184v.185h.369v.184h.368v.185h.184v.185h.369v.185h.552v.184h.369v.185h.552v.185h.553v.184h.552v.185h.921v.185h4.42v-.185h1.106v-.185h.736v-.184h.369v-.185h.552v-.185h.369v-.184h.368v-.185h.368v-.185h.369v-.185h.368v-.184h.184v-.185h.369v-.185h.184v-.184h.368v-.185h.184v-.185h.184v-.184h.369v-.185h.184v-.185h.184v-.185h.184v-.184h.185v-.185h.184v-.185h.184v-.184h.184v-.185h.184v-.37h.185v-.184h.184v-.185h.184v-.37h.184v-.184h.184v-.185h.184v-.37h.185v-.369h.184v-.369h.184v-.37h.184v-.369h.184v-.37h.184v-.553h.185v-.555h.184v-.184h.368v-.185h.184v-.185h.185v-.184h.184v-.185h.184v-.37h.184v-.184h.184v-.37h.184v-.369h.185v-.739h.184v-1.847H29.1v-.554h-.185v-.37h-.184v-.369h-.184v-.185h-.184v-.369h-.184v-.185h-.184V9.79h-.185v-.185h-.184V9.42h-.368v-.185h-.184v-.554h-.185v-.554h-.184v-.37h-.184v-.369h-.184v-.37h-.184V6.65h-.184V6.28h-.185v-.37h-.184v-.184h-.184v-.37h-.184v-.184h-.184v-.185h-.184v-.37h-.185v-.184h-.184v-.185h-.184v-.184h-.184v-.185h-.184v-.185h-.185V3.51h-.184v-.184h-.184V3.14h-.184v-.185h-.184v-.184h-.369v-.185h-.184V2.4h-.184v-.184h-.368v-.185h-.185v-.185h-.368v-.185h-.368v-.184h-.185v-.185h-.368v-.185h-.552V.924h-.369V.739h-.368V.554h-.553V.37h-.552V.185h-1.105V0h-4.789z" fill="#3b3929"/><path d="M12.524.924h-.736v.184h-.737v.185h-.553v.185h-.368v.184h-.553v.185H9.21v.185h-.368v.185h-.184V2.4h-.369v.185H7.92v.185h-.184v.184h-.369v.185h-.184v.185H7v.184h-.184v.185h-.369v.185h-.184v.185h-.184v.184h-.184v.185H5.71v.185h-.185v.184h-.184v.185h-.184v.37h-.184v.184h-.184v.185h-.184v.37H4.42v.184h-.184v.37h-.184v.184h-.184v.37h-.184v.37h-.185v.368h-.184v.555h-.184v.369h-.184v.554h-.184v.37h-.184v.184H2.21v.185h-.184v.185h-.184v.184h-.184v.37h-.185v.185H1.29v.369h-.184v.37H.921v2.4h.184v.37h.184v.37h.184v.184h.185v.37h.184v.184h.184v.185h.368v.185h.185v.184h.184v.185h.184v.739h.184v.37h.184v.553H3.5v.37h.185v.37h.184v.184h.184v.37h.184v.369h.184v.184h.185v.37h.184v.185h.184v.184h.184v.185h.184v.37h.184v.184h.185v.185h.184v.185h.184v.184h.184v.185h.184v.185h.369v.184h.184v.185h.184v.185h.368v.185h.185v.184h.184v.185h.368v.185h.369v.184h.368v.185h.368v.185h.369v.184h.368v.185h.553v.185h.736v.185h.553v.184h.736v.185h3.684v-.185h.921v-.184h.553v-.185h.736v-.185h.553v-.185h.368v-.184h.369v-.185h.368v-.185h.368v-.184h.369v-.185h.184v-.185h.368v-.184h.184v-.185h.369v-.185h.184v-.185h.184v-.184h.184v-.185h.184v-.185h.185v-.184h.184v-.185h.184v-.185h.184v-.185h.184v-.184h.185v-.185h.184v-.185h.184v-.184h.184v-.37h.184v-.185h.185v-.369h.184v-.185h.184v-.369h.184v-.37h.184v-.369h.184v-.37h.185v-.369h.184v-.554h.184v-.554h.184v-.37h.368v-.184h.185V15.7h.184v-.184h.184v-.185h.184v-.185h.184v-.37h.185v-.369h.184v-.554h.184v-1.662h-.184v-.739h-.184v-.185h-.185v-.37h-.184v-.184h-.184v-.185h-.184v-.184h-.184v-.185h-.185v-.185h-.184V9.79h-.184v-.185h-.184v-.37h-.184v-.738h-.184v-.37h-.185v-.37h-.184v-.369h-.184v-.37h-.184V6.65h-.184v-.184h-.184v-.37h-.185v-.184h-.184v-.37h-.184v-.184h-.184v-.185h-.184v-.185h-.185v-.37h-.184v-.184h-.184v-.185h-.184v-.184h-.184v-.185h-.369v-.185h-.184V3.51h-.184v-.184h-.184V3.14h-.369v-.185h-.184v-.184h-.184v-.185h-.368V2.4h-.369v-.184h-.368v-.185h-.368v-.185h-.369v-.185h-.368v-.184h-.553v-.185h-.368v-.185h-.737V.924h-.737V.739h-4.236z" fill="#efdd11"/><path d="M14.919 11.821h.552v-.184h.184v-.185h.185v-.185h.184v-.184h.184v-.185h.184v-.185h.184v-.185h.184v-.184h.185v-.185h.184v-.185h.184V9.79h.184v-.185h.184V9.42h.185v-.185h.184v-.184h.184v-.185h.184v-.185h.184v-.184h.184v-.185h.185v-.185h.184v-.185h.184v-.184h.184v-.185h.184v-.185h.185v-.184h.184v-.185h.184v-.185h.184V6.65h.184v-.184h.184V6.28h.185v-.185h.184v-.184h.184v-.185h.184v-.185h.184v-.184h.185v-.185h-.185v-.185h-.184v-.185h-.184v-.184h-.184v-.185h-.184v-.185h-.369v-.184h-.184v-.185h-.368v-.185h-.369V3.51h-.368v-.184h-.368V3.14h-.369v-.185h-.552v-.184h-.553v-.185h-1.105V2.4H14.92zM15.103 14.223h-.184v9.42h1.657v-.185h.553v-.185h.737v-.184h.552v-.185h.553v-.185h.368v-.185h.368v-.184h.369v-.185h.184v-.185h.368v-.184h.184v-.185h.369v-.185h.184v-.185h.184v-.184h.184v-.185h.185v-.185h-.185v-.184h-.184v-.185h-.184v-.185h-.184v-.185h-.184v-.184h-.185v-.185h-.184v-.185h-.184v-.184h-.184v-.185h-.184v-.185h-.184v-.184h-.185v-.185h-.184v-.185h-.184v-.185h-.184v-.184h-.184v-.185h-.185v-.185h-.184v-.184h-.184v-.185h-.184v-.185h-.184v-.185h-.184v-.184h-.185v-.185h-.184v-.185h-.184v-.184h-.184v-.185h-.184V15.7h-.185v-.184h-.184v-.185h-.184v-.185h-.184v-.185h-.184v-.184h-.184v-.185h-.185v-.185h-.184v-.184h-.184v-.185h-.184z" fill="#534726"/><path d="M6.446 5.91h-.184v.37h-.184v.185h-.184v.184H5.71v.37h-.185v.185h-.184v.37h-.184v.184h-.184v.37h-.184v.553h-.184v.37H4.42v.554h-.184v.739h-.184v.923h-.184v1.293h9.393v-.554h-.184v-.185h-.184v-.184h-.185v-.185h-.184v-.185h-.184v-.184h-.184v-.185h-.184v-.185h-.184v-.185h-.185v-.184h-.184v-.185h-.184v-.185h-.184V9.79h-.184v-.185h-.184V9.42h-.185v-.185h-.184v-.184h-.184v-.185h-.184v-.185h-.184v-.184h-.185v-.185h-.184v-.185H9.21v-.185h-.184v-.184H8.84v-.185h-.184v-.185h-.185v-.184h-.184v-.185h-.184v-.185H7.92V6.65h-.184v-.184H7.55V6.28h-.184v-.185h-.184v-.184H7v-.185h-.553z" fill="#4d4427"/><path d="M13.814 14.407h-.369v.185h-.184v.185h-.184v.184h-.184v.185h-.185v.185h-.184v.185h-.184v.184h-.184v.185h-.184v.185h-.184v.184h-.185v.185h-.184v.185h-.184v.184h-.184v.185h-.184v.185h-.184v.185h-.185v.184h-.184v.185h-.184v.185h-.184v.184h-.184v.185h-.185v.185h-.184v.185H9.21v.184h-.184v.185H8.84v.185h-.184v.184h-.185v.185h-.184v.185h-.184v.184H7.92v.185h-.184v.185H7.55v.185h-.184v.554h.369v.184h.184v.185h.184v.185h.184v.185h.369v.184h.184v.185h.368v.185h.368v.184h.369v.185h.368v.185h.369v.185h.552v.184h.737v.185h.736v.185h1.474v-9.605h-.368z" fill="#534727"/><path d="M22.286 5.91h-.184v.185h-.184v.185h-.185v.185h-.184v.184h-.184v.185h-.184v.185h-.184v.185h-.185v.184h-.184v.185h-.184v.185h-.184v.184h-.184v.185h-.184v.185h-.185v.185h-.184v.184h-.184v.185h-.184v.185h-.184v.184h-.185v.185h-.184v.185h-.184v.185h-.184v.184h-.184v.185h-.184v.185h-.185v.184h-.184v.185h-.184v.185h-.184v.185h-.184v.184h-.185v.185h-.184v.185h-.184v.184h-.184v.185h-.184v.185h-.184v.37h9.577v-1.294h-.184v-.739h-.184v-.923h-.184v-.37h-.185v-.554h-.184v-.37h-.184v-.369h-.184v-.369h-.184v-.185h-.185v-.37h-.184v-.184h-.184v-.37h-.184V6.28h-.184v-.185h-.185v-.184h-.184v-.185h-.368zM15.84 13.853h.184v.185h.184v.185h.184v.184h.184v.185h.184v.185h.185v.184h.184v.185h.184v.185h.184v.185h.184v.184h.185v.185h.184v.185h.184v.184h.184v.185h.184v.185h.184v.184h.185v.185h.184v.185h.184v.185h.184v.184h.184v.185h.185v.185h.184v.184h.184v.185h.184v.185h.184v.185h.184v.184h.185v.185h.184v.185h.184v.184h.184v.185h.184v.185h.185v.184h.184v.185h.184v.185h.368v-.185h.184v-.185h.185v-.184h.184v-.185h.184v-.37h.184v-.184h.184v-.37h.185v-.184h.184v-.37h.184v-.369h.184v-.37h.184v-.554h.185v-.369h.184v-.923h.184v-.924h.184v-1.108H15.84z" fill="#423e28"/><path d="M12.893 2.586h-1.105v.185h-.737v.184h-.368v.185h-.369v.185h-.552v.184h-.185v.185H9.21v.185h-.368v.185h-.184v.184h-.369v.185h-.184v.185H7.92v.184h-.184v.185h-.369v.37h.184v.184h.185v.185h.184v.185h.184v.184h.184v.185h.184v.185h.185v.184h.184v.185h.184v.185h.184v.185h.184v.184h.184v.185h.185v.185h.184v.184h.184v.185h.184v.185h.184v.185h.185v.184h.184v.185h.184v.185h.184v.184h.184v.185h.184v.185h.185v.185h.184v.184h.184v.185h.184v.185h.184v.184h.184v.185h.185v.185h.184v.185h.184v.184h.184v.185h.184v.185h.185v.184h.368v-9.42h-1.29zM3.868 14.777h.184v.923h.184v.74h.184v.553h.185v.37h.184v.554h.184v.184h.184v.37h.184v.37h.184v.184h.185v.37h.184v.184h.184v.185h.184v.184h.184v.37h.369v-.185h.184v-.185h.184v-.184h.184v-.185h.184v-.185h.185v-.184h.184v-.185h.184v-.185h.184v-.184h.184v-.185h.185v-.185h.184v-.185h.184v-.184h.184v-.185h.184v-.185h.184v-.184h.185v-.185h.184v-.185h.184v-.185h.184v-.184h.184v-.185h.185v-.185h.184v-.184h.184v-.185h.184V15.7h.184v-.184h.184v-.185h.185v-.185h.184v-.185h.184v-.184h.184v-.185h.184v-.185h.184v-.184h.185v-.185h.184v-.185h.184v-.37H3.868z" fill="#423a27"/><path d="M22.286 6.465h-.184v.184h-.184v.185h-.185v.185h-.184v.185h-.184v.184h-.184v.185h-.184v.185h-.185v.184h-.184v.185h-.184v.185h-.184v.185h-.184v.184h-.184v.185h-.185v.185h-.184v.184h-.184v.185h-.184v.185h-.184v.185h-.185v.184h-.184v.185h-.184v.185h-.184v.184h-.184v.185h-.184v.185h-.185v.185h-.184v.184h-.184v.185h-.184v.185h-.184v.184h-.185v.185h-.184v.185h8.289v-1.293h-.185V9.79h-.184v-.37h-.184v-.554h-.184v-.37h-.184v-.369h-.185v-.37h-.184v-.184h-.184v-.37h-.184V7.02h-.184v-.37h-.185v-.184h-.184V6.28h-.368zM16.76 14.223h.185v.184h.184v.185h.184v.185h.184v.184h.184v.185h.185v.185h.184v.185h.184v.184h.184v.185h.184v.185h.184v.184h.185v.185h.184v.185h.184v.184h.184v.185h.184v.185h.185v.185h.184v.184h.184v.185h.184v.185h.184v.184h.184v.185h.185v.185h.184v.185h.184v.184h.184v.185h.184v.185h.185v.184h.184v.185h.184v.185h.368v-.185h.184v-.185h.185v-.369h.184v-.185h.184v-.37h.184v-.184h.184v-.37h.185v-.369h.184v-.37h.184v-.553h.184v-.74h.184v-.738h.185v-1.293H16.76zM6.63 6.465h-.184v.184h-.184v.185h-.184v.37h-.184v.184H5.71v.37h-.185v.184h-.184v.37h-.184v.37h-.184v.553h-.184v.555h-.184v.738H4.42v.74h-.184v.923h8.288v-.185h-.184v-.185h-.184v-.184h-.184v-.185h-.184v-.185h-.185v-.184h-.184v-.185h-.184v-.185h-.184v-.185h-.184v-.184h-.184v-.185h-.185v-.185h-.184V9.79h-.184v-.185h-.184V9.42h-.184v-.185h-.185v-.184h-.184v-.185H9.21v-.185h-.184v-.184H8.84v-.185h-.184v-.185h-.185v-.185h-.184v-.184h-.184v-.185H7.92v-.185h-.184v-.184H7.55v-.185h-.184v-.185h-.184V6.65H7v-.184h-.184V6.28H6.63zM13.077 2.955h-1.105v.185h-.737v.185h-.368v.184h-.369v.185h-.368v.185h-.368v.185h-.369v.184h-.368v.185H8.84v.185h-.369v.184h-.184v.185h-.184v.185H7.92v.185h.184v.184h.184v.185h.184v.185h.185v.184h.184v.185h.184v.185h.184v.184h.184v.185h.184v.185h.185v.185h.184v.184h.184v.185h.184v.185h.184v.184h.185v.185h.184v.185h.184v.185h.184v.184h.184v.185h.184v.185h.185v.184h.184v.185h.184v.185h.184v.185h.184v.184h.184v.185h.185v.185h.184v.184h.184v.185h.184v.185h.184v.185h.185V2.77h-.737zM4.236 14.407h.184v1.109h.185v.923h.184v.37h.184v.369h.184v.554h.184v.185h.184v.37h.185v.369h.184v.184h.184v.37h.184v.184h.184v.185h.185v.185h.184v-.185h.184v-.185h.184v-.184h.184v-.185h.184v-.185h.185v-.184h.184v-.185h.184v-.185h.184v-.185h.184v-.184h.185v-.185h.184v-.185h.184v-.184h.184v-.185h.184v-.185h.184v-.185h.185v-.184h.184v-.185h.184v-.185h.184v-.184h.184v-.185h.185V15.7h.184v-.184h.184v-.185h.184v-.185h.184v-.185h.184v-.184h.185v-.185h.184v-.185h.184v-.184h.184v-.185h.184v-.185H4.236zM13.63 15.146h-.185v.185h-.184v.185h-.184v.184h-.184v.185h-.185v.185h-.184v.184h-.184v.185h-.184v.185h-.184v.184h-.184v.185h-.185v.185h-.184v.185h-.184v.184h-.184v.185h-.184v.185h-.184v.184h-.185v.185h-.184v.185h-.184v.185h-.184v.184h-.184v.185h-.185v.185h-.184v.184H9.21v.185h-.184v.185H8.84v.184h-.184v.185h-.185v.185h-.184v.185h-.184v.184H7.92v.185h.184v.185h.184v.184h.184v.185h.369v.185h.184v.185h.368v.184h.369v.185h.368v.185h.368v.184h.369v.185h.736v.185h.553v.185h.92v.184h.738v-8.312h-.185zM15.471 11.083h.184v-.185h.185v-.185h.184v-.185h.184v-.184h.184v-.185h.184v-.185h.184V9.79h.185v-.185h.184V9.42h.184v-.185h.184v-.184h.184v-.185h.185v-.185h.184v-.184h.184v-.185h.184v-.185h.184v-.185h.184v-.184h.185v-.185h.184v-.185h.184v-.184h.184v-.185h.184v-.185h.185V6.65h.184v-.184h.184V6.28h.184v-.185h.184v-.184h.184v-.185h.185v-.185h.184v-.184h.184v-.185h-.184v-.185h-.184v-.185h-.369v-.184h-.184v-.185h-.184v-.185h-.368v-.184h-.369v-.185h-.368v-.185h-.369V3.51h-.368v-.184h-.737V3.14h-.368v-.185h-1.105v-.184h-.737zM15.471 23.273h.737v-.184h.552v-.185h.921v-.185h.553v-.185h.552v-.184h.369v-.185h.368v-.185h.369v-.184h.184v-.185h.368v-.185h.184v-.185h.184v-.184h.369v-.185h.184v-.185h-.184v-.184h-.184v-.185h-.185v-.185h-.184v-.185h-.184v-.184h-.184v-.185h-.184v-.185h-.184v-.184h-.185v-.185h-.184v-.185h-.184v-.184h-.184v-.185h-.184v-.185h-.185v-.185h-.184v-.184h-.184v-.185h-.184v-.185h-.184v-.184h-.184v-.185h-.185v-.185h-.184v-.185h-.184v-.184h-.184v-.185h-.184v-.185h-.185v-.184h-.184v-.185h-.184V15.7h-.184v-.184h-.184v-.185h-.184v-.185h-.185v-.185h-.184z" fill="#efdd11"/><g><path d="M89.365 19.36h2.467v-4.235h.411v1.54h.412v1.54h.41v1.155h2.057v-1.155h.411v-1.54h.411V14.74h.411v4.62h2.468v-8.855h-3.701v1.155h-.411v1.155h-.412v1.54h-.41v-.77h-.412v-2.31h-.411v-.77h-3.7zM73.74 11.66h.411v2.31h.411v1.925h.411v2.31h.411v1.155h2.879v-1.155h.411V16.28h.822v1.925h.412v1.155h2.878v-1.54h.411v-1.925h.411v-1.54h.412v-2.31h.41v-1.54h-2.466v2.31h-.412v1.925h-.822v-1.155h-.411V10.89h-.411v-.385h-1.645v.385h-.411v1.54h-.412v2.695h-.41V13.97h-.412v-1.54h-.411v-1.925H73.74z" fill="#3b3929"/><path d="M68.394 10.505h-.822v.385h-.411v.385h-.412v.385h-.41v6.545h.41v.384h.412v.385h.41v.386h1.234v.385h2.056v-.385h.823v-.386h.822v-.77h.411V11.66h-.41v-.385h-.412v-.385h-.411v-.385h-.823v-.385h-2.467z" fill="#31332b"/><path d="M107.869 19.36h5.345v-.386h.412v-.385h.41v-.384h.412V11.66h-.411v-.385h-.411v-.385h-.412v-.385h-5.345z" fill="#34362b"/><path d="M121.438 10.505h-.822v.385h-.411v.385h-.411v.77h-.412v7.315h2.467v-1.925h1.645v1.925h2.467v-7.7h-.41v-.77h-.823v-.385h-.823v-.385h-2.467z" fill="#37362b"/><path d="M44.545 19.36h6.579v-2.31h-4.112v-.77h2.878v-2.31h-2.467v-.385h-.411v-.77h4.112v-2.31h-6.58z" fill="#3e3a28"/><path d="M100.056 19.36h6.58v-1.925h-3.702v-.385h-.41v-.77h2.878c-.09-.67-.051-1.53-.042-2.31h-2.426v-.385h-.41v-.77h4.111v-2.31h-6.579c.046 3.155.065 6.192 0 8.855z" fill="#37362b"/><path d="M36.321 12.045h.411v.77h.411v.77h.412v.77h.41v.77h.412v.77h.411v3.465h2.467v-3.465h.411v-.77h.412v-.77h.41V13.2h.412v-.77h.411v-.77h.411v-1.155h-2.467v.385h-.41v.77h-.412v.77h-.411v.385h-.411v-.77h-.412V10.89h-.41v-.385H36.32z" fill="#34362b"/><path d="M59.348 19.36h6.168v-2.31h-3.701v-6.545h-2.467z" fill="#3b3929"/><path d="M52.358 19.36h6.768v-1.925h-4.061v-6.93h-2.707z" fill="#37362b"/><path d="M115.682 19.36h2.467v-8.855h-2.467z" fill="#3b3929"/><path d="M69.217 12.815h-.412v.385h-.41v3.85h.41v.385h1.645v-.385h.411V13.2h-.41v-.385h-.412v-.385h-.822zM109.925 17.05h2.056v-4.235h-2.056zM121.85 15.51h1.644v-2.695h-1.645z" fill="#efdd11"/></g></g></symbol><symbol id="yellow-media-logo" viewbox="0 0 338.9433 281.87671"><g fill-rule="evenodd"><path d="M149.26 1.575h-7.774V3.15h-4.665v1.574h-4.664V6.3h-3.11v1.575h-4.664v1.575h-3.11v1.574h-3.11v1.575h-3.109v1.575H113.5v1.574h-3.11v1.575h-1.554v1.575h-3.11v1.574h-1.554v1.575h-3.11v1.575h-1.555v1.575h-1.555v1.575h-1.554v1.574h-1.555v1.575h-1.555v1.575h-1.555v1.575h-1.555v1.574h-1.554v1.575h-1.555v1.575h-1.555v1.575h-1.555v1.574h-1.554v3.15h-1.555v1.574h-1.555v1.575H77.74v3.15h-1.555v3.15H74.63v1.574h-1.555v3.15H71.52v3.149h-1.555v3.149h-1.554v3.15h-1.555v4.724h-1.555v4.724h-1.555v1.575h-1.555v1.574h-1.554v1.575h-1.555v1.575h-1.555v1.574h-1.555v1.575h-1.555v1.575h-1.554v3.15h-1.555v3.149h-1.555v3.15h-1.555v3.149h-1.554v18.897h1.554v4.724h1.555v3.149h1.555v3.15h1.555v3.15h1.554v1.574h1.555V137h1.555v1.575h1.555v1.575h1.555v1.574h1.554v1.575h1.555v1.575h1.555v4.724h1.555v3.15h1.555v4.724h1.554v3.15h1.555v3.149h1.555v3.15h1.555v1.574h1.554v3.15h1.555v1.574h1.555v3.15h1.555v1.574h1.555v1.575h1.554v3.15h1.555v1.574h1.555v1.575h1.555v1.575h1.554v1.575h1.555v1.575h1.555v1.574h1.555v1.575h1.555v1.575h1.554v1.574h1.555v1.575h3.11v1.575h1.555v1.574h1.554v1.575h3.11v1.575h1.555v1.574h3.11v1.575h3.11v1.575h1.554v1.575h3.11v1.574h4.664v1.575h3.11v1.575h4.664v1.575h4.664v1.575h4.664v1.574h7.774v1.575h37.315v-1.575h9.329v-1.574h6.219v-1.575h3.11v-1.575h4.664v-1.575h3.11v-1.575h3.109v-1.574h3.11v-1.575h3.109v-1.575h3.11v-1.575h1.555v-1.574h3.109v-1.575h1.555v-1.575h3.11v-1.574h1.554v-1.575h1.555v-1.575h3.11v-1.574h1.554v-1.575h1.555v-1.575h1.555v-1.574h1.555v-1.575h1.554v-1.575h1.555v-1.575h1.555v-1.575h1.555v-3.149h1.555v-1.575h1.554v-1.575h1.555v-3.149h1.555v-1.575h1.555v-1.575h1.554v-3.149h1.555v-3.15h1.555v-3.149h1.555v-3.15h1.555v-3.149h1.554v-3.15h1.555v-4.723h1.555V143.3h1.555v-1.575h3.11v-1.574h1.554v-1.575h1.555v-1.575h1.555v-1.574h1.554v-3.15h1.555v-1.574h1.555v-3.15h1.555v-3.15h1.554v-6.298h1.555v-15.747H292.3v-4.724h-1.554v-3.15h-1.555v-3.15h-1.555V89.76h-1.555v-3.15h-1.554v-1.575h-1.555v-1.574h-1.555v-1.575h-1.555v-1.575h-3.11v-1.574h-1.554v-4.724h-1.555v-4.725h-1.555v-3.15h-1.554V62.99h-1.555V59.84h-1.555v-3.15h-1.555v-3.149h-1.555v-3.15h-1.554v-1.574h-1.555v-3.15h-1.555v-1.574h-1.555v-1.575h-1.554v-3.15h-1.555v-1.574h-1.555v-1.575h-1.555v-1.575h-1.555V33.07h-1.554v-1.575h-1.555V29.92h-1.555v-1.575h-1.555v-1.574h-1.554v-1.575h-1.555v-1.575h-3.11v-1.575h-1.555v-1.575h-1.554v-1.574h-3.11v-1.575h-1.555v-1.575h-3.11v-1.574h-3.109v-1.575h-1.555v-1.575h-3.11V9.45h-4.663V7.874h-3.11V6.299h-3.11V4.724h-4.664V3.15h-4.664V1.575h-9.33V0H149.26z" fill="#3b3929"/><path d="M152.369 7.874h-6.22v1.575h-6.218v1.574h-4.665v1.575h-3.11v1.575h-4.664v1.574h-3.11v1.575h-3.109v1.575h-1.554v1.574h-3.11v1.575h-3.11v1.575h-1.555v1.575h-3.109v1.575h-1.555v1.574h-1.555v1.575h-1.554v1.575h-3.11v1.575h-1.555v1.574h-1.555v1.575h-1.554v1.575h-1.555v1.575h-1.555v1.574h-1.555v1.575h-1.555v3.15h-1.554v1.574h-1.555v1.575h-1.555v3.15h-1.555v1.574h-1.554v3.15h-1.555v1.574h-1.555v3.15H77.74v3.149h-1.555v3.15H74.63v4.724h-1.555v3.15H71.52v4.723h-1.555v3.15h-1.554v1.574H65.3v1.575h-1.555v1.575h-1.555v1.575h-1.554v3.15h-1.555v1.574h-1.555v3.15h-1.555v3.149h-1.555v20.471h1.555v3.15h1.555v3.149h1.555v1.575h1.555v3.15h1.554v1.574h1.555v1.575h3.11V137h1.555v1.575h1.554v1.575h1.555v6.299h1.555v3.15h1.555v4.724h1.554v3.149h1.555v3.15h1.555v1.574h1.555v3.15h1.555v3.15h1.554v1.574h1.555v3.15h1.555v1.574h1.555v1.575h1.554v1.574h1.555v3.15h1.555v1.575h1.555v1.574h1.555v1.575h1.554v1.575h1.555v1.575h1.555v1.575h3.11v1.574h1.554v1.575h1.555v1.575h3.11v1.574h1.554v1.575h1.555v1.575h3.11v1.574h3.11v1.575h3.11v1.575h3.109v1.574h3.11v1.575h3.109v1.575h4.664v1.575h6.22v1.574h4.664v1.575h6.219v1.575h31.096v-1.575h7.774v-1.575h4.664v-1.574h6.219v-1.575h4.664v-1.575h3.11v-1.575h3.11v-1.574h3.109v-1.575h3.11v-1.575h3.109v-1.574h1.555v-1.575h3.11v-1.575h1.554v-1.574h3.11v-1.575h1.555v-1.575h1.554v-1.574h1.555v-1.575h1.555v-1.575h1.555v-1.575h1.555v-1.575h1.554v-1.574h1.555v-1.575h1.555v-1.575h1.555v-1.575h1.554v-1.574h1.555v-1.575h1.555v-3.15h1.555v-1.574h1.555v-3.15h1.554v-1.574h1.555v-3.15h1.555v-3.15h1.555v-3.149h1.554v-3.15h1.555V149.6h1.555v-4.724h1.555v-4.724h1.555v-3.15h3.11v-1.574h1.554v-1.575h1.555v-1.575h1.554v-1.574h1.555v-1.575h1.555v-3.15h1.555v-3.15h1.555v-4.723h1.554v-14.173h-1.554v-6.298h-1.555v-1.575h-1.555v-3.15h-1.555v-1.574h-1.555V89.76h-1.554v-1.575h-1.555V86.61h-1.555v-1.575h-1.555v-1.574h-1.554v-1.575h-1.555v-3.15h-1.555v-6.298h-1.555v-3.15h-1.555v-3.15h-1.554V62.99h-1.555V59.84h-1.555v-3.15h-1.555v-1.574h-1.554v-3.15h-1.555v-1.575h-1.555v-3.149h-1.555v-1.575h-1.555v-1.574h-1.554v-1.575h-1.555v-3.15h-1.555v-1.574h-1.555v-1.575h-1.554v-1.575h-1.555V33.07h-3.11v-1.575h-1.555V29.92h-1.554v-1.575h-1.555v-1.574h-3.11v-1.575h-1.554v-1.575h-1.555v-1.575h-3.11v-1.575h-3.11v-1.574h-3.109v-1.575h-3.11v-1.575h-3.11v-1.574h-3.109v-1.575h-4.664v-1.575h-3.11V9.45h-6.219V7.874h-6.22V6.299h-35.76z" fill="#efdd11"/><path d="M172.581 100.783h4.665v-1.575h1.555v-1.574h1.554v-1.575h1.555v-1.575h1.555v-1.575h1.555v-1.574h1.554V89.76h1.555v-1.575h1.555V86.61h1.555v-1.575h1.555v-1.574h1.554v-1.575h1.555v-1.575h1.555v-1.574h1.555v-1.575h1.554v-1.575h1.555v-1.574h1.555v-1.575h1.555v-1.575h1.555v-1.575h1.554v-1.574h1.555v-1.575h1.555v-1.575h1.555v-1.575h1.555v-1.574h1.554V59.84h1.555v-1.575h1.555V56.69h1.555v-1.574h1.554V53.54h1.555v-1.575h1.555v-1.575h1.555v-1.574h1.555v-1.575h1.554v-1.575h1.555v-1.574h-1.555v-1.575h-1.554v-1.575h-1.555V39.37h-1.555v-1.575h-1.555v-1.575h-3.11v-1.575h-1.554V33.07h-3.11v-1.575h-3.11V29.92h-3.11v-1.575h-3.108v-1.574h-3.11v-1.575h-4.664v-1.575h-4.665v-1.575h-9.328v-1.575H172.58zM174.136 121.254h-1.555v80.311h13.993v-1.574h4.665v-1.575h6.219v-1.575h4.664v-1.574h4.665v-1.575h3.109v-1.575h3.11v-1.574h3.109v-1.575h1.555v-1.575h3.11v-1.575h1.554v-1.575h3.11v-1.574h1.555v-1.575h1.555v-1.575h1.554v-1.575h1.555v-1.574h-1.555v-1.575h-1.554v-1.575h-1.555v-1.575h-1.555v-1.574h-1.555v-1.575h-1.555v-1.575h-1.554v-1.574h-1.555v-1.575h-1.555v-1.575h-1.555v-1.574h-1.554v-1.575h-1.555v-1.575h-1.555v-1.575h-1.555v-1.574h-1.555v-1.575h-1.554v-1.575h-1.555v-1.575h-1.555v-1.574h-1.555v-1.575h-1.555v-1.575h-1.554V143.3h-1.555v-1.575h-1.555v-1.574h-1.555v-1.575h-1.554v-1.575h-1.555v-1.574h-1.555v-1.575h-1.555v-1.575h-1.555v-1.574h-1.554v-1.575h-1.555v-1.575h-1.555v-1.574h-1.555v-1.575h-1.554v-1.575h-1.555v-1.575h-1.555v-1.574h-1.555z" fill="#534726"/><path d="M101.061 50.391h-1.555v3.15h-1.555v1.575h-1.554v1.574h-1.555v3.15h-1.555v1.575h-1.555v3.149h-1.555v1.575h-1.554v3.15h-1.555v4.724h-1.555v3.15h-1.555v4.723h-1.554v6.3h-1.555v7.873h-1.555v11.023h79.294v-4.724h-1.554v-1.575h-1.555v-1.575h-1.555v-1.574h-1.555v-1.575h-1.555v-1.575h-1.555v-1.575h-1.554v-1.574h-1.555V89.76h-1.555v-1.575h-1.555V86.61h-1.554v-1.575h-1.555v-1.574h-1.555v-1.575h-1.555v-1.575h-1.555v-1.574h-1.554v-1.575h-1.555v-1.575h-1.555v-1.574h-1.555v-1.575h-1.555v-1.575h-1.554v-1.575h-1.555v-1.574h-1.555v-1.575h-1.555v-1.575h-1.554v-1.575h-1.555v-1.574h-1.555V59.84h-1.555v-1.575H113.5V56.69h-1.555v-1.574h-1.554V53.54h-1.555v-1.575h-1.555v-1.575h-1.555v-1.574h-4.664z" fill="#4d4427"/><path d="M163.253 122.829h-3.11v1.575h-1.555v1.575h-1.554v1.574h-1.555v1.575h-1.555v1.575h-1.555v1.574h-1.555v1.575h-1.555v1.575h-1.554V137h-1.555v1.575h-1.555v1.575h-1.555v1.574h-1.554v1.575h-1.555v1.575h-1.555v1.575h-1.555v1.575h-1.555v1.574h-1.554v1.575h-1.555v1.575h-1.555v1.575h-1.555v1.574h-1.555v1.575h-1.554v1.575h-1.555v1.575h-1.555v1.574h-1.555v1.575h-1.554v1.575h-1.555v1.574h-1.555v1.575h-1.555v1.575H113.5v1.574h-1.555v1.575h-1.554v1.575h-1.555v4.724h3.11v1.575h1.554v1.575h1.555v1.574h1.555v1.575h3.11v1.575h1.554v1.575h3.11v1.575h3.11v1.574h3.11v1.575h3.109v1.575h3.11v1.574h4.664v1.575h6.219v1.575h6.219v1.574h12.438V119.68h-3.11z" fill="#534727"/><path d="M234.773 50.391h-1.555v1.575h-1.555v1.575h-1.555v1.575h-1.554v1.574h-1.555v1.575h-1.555v1.575h-1.555v1.575h-1.555v1.574h-1.554v1.575h-1.555v1.575h-1.555v1.575h-1.555v1.574h-1.554v1.575h-1.555v1.575h-1.555v1.575h-1.555v1.574h-1.555v1.575h-1.554v1.575h-1.555v1.574h-1.555v1.575h-1.555v1.575h-1.555v1.574h-1.554v1.575h-1.555v1.575h-1.555v1.575h-1.555v1.575h-1.554v1.574h-1.555v1.575h-1.555v1.575h-1.555v1.575h-1.555v1.574h-1.554v1.575h-1.555v1.575h-1.555v1.574h-1.555v3.15h80.849V96.059h-1.555v-6.3h-1.555v-7.873h-1.554v-3.15h-1.555v-4.723h-1.555v-3.15h-1.555v-3.15h-1.555v-3.149h-1.554v-1.575h-1.555V59.84h-1.555v-1.575h-1.555v-3.15h-1.554v-1.574h-1.555v-1.575h-1.555v-1.575h-1.555v-1.574h-3.11zM180.355 118.105h1.555v1.575h1.555v1.574h1.555v1.575h1.554v1.575h1.555v1.575h1.555v1.574h1.555v1.575h1.555v1.575h1.554v1.574h1.555v1.575h1.555v1.575h1.555V137h1.554v1.575h1.555v1.575h1.555v1.574h1.555v1.575h1.555v1.575h1.554v1.575h1.555v1.575h1.555v1.574h1.555v1.575h1.555v1.575h1.554v1.575h1.555v1.574h1.555v1.575h1.555v1.575h1.554v1.575h1.555v1.574h1.555v1.575h1.555v1.575h1.555v1.574h1.554v1.575h1.555v1.575h1.555v1.574h1.555v1.575h3.109v-1.575h1.555v-1.574h1.555v-1.575h1.555v-1.575h1.554v-3.15h1.555v-1.574h1.555v-3.15h1.555v-1.574h1.554v-3.15h1.555v-3.149h1.555v-3.15h1.555V143.3h1.555v-3.149h1.554v-7.874h1.555v-7.873h1.555v-9.449h-80.849z" fill="#423e28"/><path d="M155.479 22.046h-9.33v1.575h-6.218v1.575h-3.11v1.575h-3.11v1.574h-4.664v1.575h-1.555v1.575h-3.11v1.575h-3.109v1.574h-1.554v1.575h-3.11v1.575h-1.555v1.575H113.5v1.574h-1.555v1.575h-3.109v3.15h1.555v1.574h1.554v1.575h1.555v1.574h1.555v1.575h1.555v1.575h1.555v1.575h1.555v1.574h1.554v1.575h1.555v1.575h1.555v1.575h1.555v1.574h1.554v1.575h1.555v1.575h1.555v1.575h1.555v1.574h1.555v1.575h1.554v1.575h1.555v1.575h1.555v1.574h1.555v1.575h1.555v1.575h1.554v1.574h1.555v1.575h1.555v1.575h1.555v1.574h1.554v1.575h1.555v1.575h1.555v1.575h1.555v1.575h1.555v1.574h1.555v1.575h1.554v1.575h1.555v1.575h1.555v1.574h1.555v1.575h3.109V20.47h-10.883zM79.294 125.979h1.555v7.873h1.555v6.3h1.554v4.723h1.555v3.15h1.555v4.724h1.555v1.575h1.554v3.149h1.555v3.15h1.555v1.574h1.555v3.15h1.555v1.574h1.554v1.575h1.555v1.575h1.555v3.15h3.11v-1.576h1.554v-1.574h1.555v-1.575h1.555v-1.575h1.555v-1.574h1.554v-1.575h1.555v-1.575h1.555v-1.574h1.555v-1.575h1.555v-1.575h1.555v-1.575h1.554v-1.574h1.555v-1.575h1.555v-1.575h1.555v-1.575h1.554v-1.574h1.555v-1.575h1.555v-1.575h1.555V143.3h1.555v-1.575h1.554v-1.574h1.555v-1.575h1.555v-1.575h1.555v-1.574h1.555v-1.575h1.554v-1.575h1.555v-1.574h1.555v-1.575h1.555v-1.575h1.554v-1.574h1.555v-1.575h1.555v-1.575h1.555v-1.575h1.555v-1.574h1.555v-1.575h1.554v-3.15H79.294z" fill="#423a27"/><path d="M234.773 55.116h-1.555v1.574h-1.555v1.575h-1.555v1.575h-1.554v1.575h-1.555v1.574h-1.555v1.575h-1.555v1.575h-1.555v1.575h-1.554v1.574h-1.555v1.575h-1.555v1.575h-1.555v1.575h-1.554v1.574h-1.555v1.575h-1.555v1.575h-1.555v1.574h-1.555v1.575h-1.554v1.575h-1.555v1.574h-1.555v1.575h-1.555v1.575h-1.555v1.575h-1.554v1.575h-1.555v1.574h-1.555v1.575h-1.555v1.575h-1.554v1.575h-1.555v1.574h-1.555v1.575h-1.555v1.575h-1.555v1.574h69.966V92.91h-1.555v-9.448h-1.555v-3.15h-1.555v-4.724h-1.555v-3.15h-1.554v-3.149h-1.555v-3.15h-1.555v-1.574h-1.555v-3.15h-1.554V59.84h-1.555v-3.15h-1.555v-1.574h-1.555V53.54h-3.11zM188.129 121.254h1.555v1.575h1.555v1.575h1.555v1.575h1.554v1.574h1.555v1.575h1.555v1.575h1.555v1.574h1.554v1.575h1.555v1.575h1.555V137h1.555v1.575h1.555v1.575h1.554v1.574h1.555v1.575h1.555v1.575h1.555v1.575h1.555v1.575h1.554v1.574h1.555v1.575h1.555v1.575h1.555v1.575h1.554v1.574h1.555v1.575h1.555v1.575h1.555v1.575h1.555v1.574h1.554v1.575h1.555v1.575h1.555v1.574h1.555v1.575h3.109v-1.575h1.555v-1.574h1.555v-3.15h1.555v-1.574h1.554v-3.15h1.555v-1.575h1.555v-3.15h1.555V149.6h1.554v-3.149h1.555v-4.725h1.555v-6.298h1.555v-6.3h1.555v-11.022h-68.411zM102.616 55.116h-1.555v1.574h-1.555v1.575h-1.555v3.15h-1.554v1.574h-1.555v3.15h-1.555v1.575h-1.555v3.149h-1.555v3.15h-1.554v4.724h-1.555v4.724h-1.555v6.299h-1.555v6.299h-1.554v7.873h69.965v-1.574h-1.555v-1.575h-1.555v-1.575h-1.554v-1.574h-1.555v-1.575h-1.555v-1.575h-1.555v-1.575h-1.554v-1.574h-1.555V89.76h-1.555v-1.575h-1.555V86.61h-1.555v-1.575h-1.554v-1.574h-1.555v-1.575h-1.555v-1.575h-1.555v-1.574h-1.555v-1.575h-1.554v-1.575h-1.555v-1.574h-1.555v-1.575h-1.555v-1.575h-1.554v-1.575h-1.555v-1.574h-1.555v-1.575h-1.555v-1.575H113.5v-1.575h-1.555v-1.574h-1.554V59.84h-1.555v-1.575h-1.555V56.69h-1.555v-1.574h-1.554V53.54h-1.555zM157.034 25.196h-9.33v1.575h-6.218v1.574h-3.11v1.575h-3.11v1.575h-3.11v1.575h-3.109v1.574h-3.11v1.575h-3.109v1.575h-1.555v1.575h-3.11v1.574h-1.554v1.575h-1.555v1.575H113.5v1.574h1.555v1.575h1.555v1.575h1.555v1.574h1.555v1.575h1.554v1.575h1.555v1.575h1.555v1.574h1.555v1.575h1.554v1.575h1.555v1.575h1.555v1.574h1.555v1.575h1.555v1.575h1.554v1.575h1.555v1.574h1.555v1.575h1.555v1.575h1.555v1.575h1.554v1.574h1.555v1.575h1.555v1.575h1.555v1.574h1.554v1.575h1.555v1.575h1.555v1.574h1.555v1.575h1.555v1.575h1.555v1.575h1.554v1.575h1.555v1.574h1.555v1.575h1.555V23.62h-6.22zM82.404 122.829h1.554v9.448h1.555v7.874h1.555v3.15h1.555v3.149h1.554v4.724h1.555v1.575h1.555v3.149h1.555v3.15h1.555v1.575h1.554v3.149h1.555v1.575h1.555v1.574h1.555v1.575h1.555v-1.575h1.554v-1.574h1.555v-1.575h1.555v-1.575h1.555v-1.574h1.554v-1.575h1.555v-1.575h1.555v-1.575h1.555v-1.574h1.555v-1.575h1.555v-1.575h1.554v-1.575h1.555v-1.574h1.555v-1.575h1.555v-1.575h1.554V143.3h1.555v-1.575h1.555v-1.574h1.555v-1.575h1.555v-1.575h1.554v-1.574h1.555v-1.575h1.555v-1.575h1.555v-1.574h1.555v-1.575h1.554v-1.575h1.555v-1.574h1.555v-1.575h1.555v-1.575h1.554v-1.575h1.555v-1.574h1.555v-1.575H82.404zM161.698 129.128h-1.555v1.575h-1.555v1.574h-1.554v1.575h-1.555v1.575h-1.555V137h-1.555v1.575h-1.555v1.575h-1.555v1.574h-1.554v1.575h-1.555v1.575h-1.555v1.575h-1.555v1.575h-1.554v1.574h-1.555v1.575h-1.555v1.575h-1.555v1.575h-1.555v1.574h-1.554v1.575h-1.555v1.575h-1.555v1.575h-1.555v1.574h-1.555v1.575h-1.554v1.575h-1.555v1.574h-1.555v1.575h-1.555v1.575h-1.554v1.574h-1.555v1.575h-1.555v1.575h-1.555v1.575H113.5v1.574h1.555v1.575h1.555v1.575h1.555v1.575h3.11v1.574h1.554v1.575h3.11v1.575h3.11v1.575h3.109v1.575h3.11v1.574h3.109v1.575h6.22v1.575h4.663v1.574h7.775v1.575h6.219v-70.863h-1.555zM177.246 94.484h1.555v-1.575h1.554v-1.574h1.555V89.76h1.555v-1.575h1.555V86.61h1.554v-1.575h1.555v-1.574h1.555v-1.575h1.555v-1.575h1.555v-1.574h1.554v-1.575h1.555v-1.575h1.555v-1.574h1.555v-1.575h1.554v-1.575h1.555v-1.575h1.555v-1.574h1.555v-1.575h1.555v-1.575h1.554v-1.575h1.555v-1.574h1.555V59.84h1.555v-1.575h1.555V56.69h1.554v-1.574h1.555V53.54h1.555v-1.575h1.555v-1.575h1.554v-1.574h1.555v-1.575h1.555v-1.575h1.555v-1.574h-1.555v-1.575h-1.555v-1.575h-3.11V39.37h-1.554v-1.575h-1.555v-1.575h-3.11v-1.575h-3.11V33.07h-3.109v-1.575h-3.11V29.92h-3.109v-1.575h-6.22v-1.574h-3.108v-1.575h-9.33v-1.575h-6.218zM177.246 198.416h6.219v-1.575h4.664v-1.574h7.774v-1.575h4.664v-1.575h4.665v-1.574h3.11v-1.575h3.109v-1.575h3.11v-1.575h1.554v-1.575h3.11v-1.574h1.555v-1.575h1.554v-1.575h3.11v-1.575h1.555v-1.574h-1.555v-1.575h-1.555v-1.575h-1.555v-1.575h-1.554v-1.574h-1.555v-1.575h-1.555v-1.575h-1.555v-1.574h-1.554v-1.575h-1.555v-1.575h-1.555v-1.574h-1.555v-1.575h-1.555v-1.575h-1.554v-1.575h-1.555v-1.574h-1.555v-1.575h-1.555v-1.575h-1.555v-1.575h-1.554v-1.574h-1.555v-1.575h-1.555v-1.575h-1.555V143.3h-1.554v-1.575h-1.555v-1.574h-1.555v-1.575h-1.555v-1.575h-1.555v-1.574h-1.554v-1.575h-1.555v-1.575h-1.555v-1.574h-1.555v-1.575h-1.554v-1.575h-1.555z" fill="#efdd11"/><g><path d="M200.567 280.302h9.329V262.98h1.555v6.298h1.555v6.3h1.555v4.724h7.773v-4.724h1.555v-6.3h1.555v-7.873h1.555v18.897h9.328v-36.219h-13.993v4.724h-1.554v4.725h-1.555v6.298h-1.555v-3.15h-1.555v-9.447h-1.554v-3.15h-13.994zM141.486 248.807h1.554v9.449h1.555v7.873h1.555v9.449h1.555v4.724h10.883v-4.724h1.555v-7.874h3.11v7.874h1.554v4.724h10.884v-6.3h1.555v-7.873h1.555v-6.299h1.554v-9.448h1.555v-6.299h-9.329v9.449h-1.554v7.873h-3.11v-4.724h-1.555v-11.023h-1.555v-1.575h-6.219v1.575h-1.554v6.299h-1.555v11.023h-1.555v-4.724h-1.555v-6.3h-1.555v-7.873h-9.328z" fill="#3b3929"/><path d="M121.273 244.083h-3.11v1.575h-1.554v1.575h-1.555v1.574H113.5v26.77h1.555v1.575h1.555v1.575h1.555v1.575h4.664v1.575h7.774v-1.575h3.11v-1.575h3.11v-3.15h1.554v-26.77h-1.555v-1.574h-1.555v-1.575h-1.554v-1.575h-3.11v-1.575h-9.329z" fill="#31332b"/><path d="M270.533 280.302h20.212v-1.575h1.554v-1.575h1.555v-1.574h1.555v-26.77h-1.555v-1.575H292.3v-1.575h-1.554v-1.575h-20.212z" fill="#34362b"/><path d="M321.84 244.083h-3.109v1.575h-1.555v1.575h-1.555v3.149h-1.555v29.92h9.33v-7.874h6.218v7.874h9.33v-31.495h-1.556v-3.15h-3.11v-1.574h-3.109v-1.575h-9.329z" fill="#37362b"/><path d="M31.096 280.302h24.876v-9.449H40.424v-3.149h10.884v-9.448h-9.329v-1.575h-1.555v-3.15h15.548v-9.448H31.096z" fill="#3e3a28"/><path d="M240.992 280.302h24.876v-7.874h-13.993v-1.575h-1.555v-3.149h10.884v-9.448h-9.329v-1.575h-1.555v-3.15h15.548v-9.448h-24.876z" fill="#37362b"/><path d="M0 250.382h1.555v3.15H3.11v3.149h1.555v3.15h1.554v3.149h1.555v3.15H9.33v14.172h9.329v-14.173h1.554v-3.15h1.555v-3.149h1.555v-4.724h1.555v-3.15h1.554v-3.149h1.555v-4.724h-9.328v1.575h-1.555v3.15h-1.555v3.149h-1.555v1.575h-1.555v-3.15h-1.554v-4.724H9.329v-1.575H0z" fill="#34362b"/><path d="M87.068 280.302h23.322v-9.449H96.397v-26.77h-9.329z" fill="#3b3929"/><path d="M60.637 280.302h23.321v-7.874H69.965v-28.345h-9.328z" fill="#37362b"/><path d="M300.073 280.302h9.33v-36.219h-9.33z" fill="#3b3929"/><path d="M124.383 253.532h-1.555v1.574h-1.555v15.747h1.555v1.575h6.22v-1.575h1.554v-15.747h-1.555v-1.574h-1.555v-1.575h-3.11zM278.306 270.853h7.774v-17.321h-7.774zM323.395 264.554h6.22v-11.022h-6.22z" fill="#efdd11"/></g></g></symbol></svg>