<svg xmlns="http://www.w3.org/2000/svg" width="30" height="50" viewBox="0 0 326.58 326.58"><path d="M119.961 94.201l86.873-86.879a2.804 2.804 0 0 0 0-3.961 2.799 2.799 0 0 0-3.961 0l-84.901 84.892L30.546.821a2.803 2.803 0 0 0-3.963 0 2.75 2.75 0 0 0-.816 1.981c0 .717.275 1.438.816 1.987l89.424 89.412c1.078 1.095 2.854 1.095 3.954 0zm-93.378 22.402a2.746 2.746 0 0 0-.816 1.98c0 .718.275 1.434.816 1.987l89.413 89.401a2.822 2.822 0 0 0 3.964 0l86.873-86.874a2.804 2.804 0 0 0 0-3.961 2.799 2.799 0 0 0-3.961 0l-84.896 84.887-87.431-87.42a2.793 2.793 0 0 0-3.962 0zm-.816 117.757c0 .713.275 1.434.816 1.986l89.424 89.425a2.828 2.828 0 0 0 3.959 0l86.868-86.907c1.092-1.082 1.092-2.866 0-3.963a2.82 2.82 0 0 0-3.961 0l-84.901 84.904-87.426-87.432c-1.096-1.093-2.879-1.093-3.963 0a2.761 2.761 0 0 0-.816 1.987z" fill="#b2b2b2" stroke="#b2b2b2" stroke-width="5%"/></svg>