<svg xmlns="http://www.w3.org/2000/svg" viewBox="0 0 338.9433 281.87671" height="281.877" width="338.943"><g fill-rule="evenodd"><path d="M149.26 1.575h-7.774V3.15h-4.665v1.574h-4.664V6.3h-3.11v1.575h-4.664V9.45h-3.11v1.574h-3.11v1.575h-3.109v1.575H113.5v1.574h-3.11v1.575h-1.554v1.575h-3.11v1.574h-1.554v1.575h-3.11v1.575h-1.555v1.575h-1.555v1.575h-1.554v1.574h-1.555v1.575h-1.555v1.575h-1.555v1.575h-1.555v1.574h-1.554v1.575h-1.555v1.575h-1.555v1.575h-1.555v1.574h-1.554v3.15H80.85v1.574h-1.555v1.575H77.74v3.15h-1.555v3.15H74.63v1.574h-1.555v3.15H71.52v3.149h-1.555v3.149h-1.554v3.15h-1.555v4.724h-1.555v4.724h-1.555v1.575h-1.555v1.574h-1.554v1.575h-1.555v1.575h-1.555v1.574h-1.555v1.575h-1.555v1.575h-1.554v3.15h-1.555v3.149h-1.555v3.15h-1.555v3.149h-1.554v18.897h1.554v4.724h1.555v3.149h1.555v3.15h1.555v3.15h1.554v1.574h1.555V137h1.555v1.575h1.555v1.575h1.555v1.574h1.554v1.575h1.555v1.575h1.555v4.724h1.555v3.15h1.555v4.724h1.554v3.15h1.555v3.149h1.555v3.15h1.555v1.574h1.554v3.15h1.555v1.574h1.555v3.15h1.555v1.574h1.555v1.575h1.554v3.15h1.555v1.574h1.555v1.575h1.555v1.575h1.554v1.575h1.555v1.575h1.555v1.574h1.555v1.575h1.555v1.575h1.554v1.574h1.555v1.575h3.11v1.575h1.555v1.574h1.554v1.575h3.11v1.575h1.555v1.574h3.11v1.575h3.11v1.575h1.554v1.575h3.11v1.574h4.664v1.575h3.11v1.575h4.664v1.575h4.664v1.575h4.664v1.574h7.774v1.575h37.315v-1.575h9.329v-1.574h6.219v-1.575h3.11v-1.575h4.664v-1.575h3.11v-1.575h3.109v-1.574h3.11v-1.575h3.109v-1.575h3.11v-1.575h1.555v-1.574h3.109v-1.575h1.555v-1.575h3.11v-1.574h1.554v-1.575h1.555v-1.575h3.11v-1.574h1.554v-1.575h1.555v-1.575h1.555v-1.574h1.555v-1.575h1.554v-1.575h1.555v-1.575h1.555v-1.575h1.555v-3.149h1.555v-1.575h1.554v-1.575h1.555v-3.149h1.555v-1.575h1.555v-1.575h1.554v-3.149h1.555v-3.15h1.555v-3.149h1.555v-3.15h1.555v-3.149h1.554v-3.15h1.555v-4.723h1.555V143.3h1.555v-1.575h3.11v-1.574h1.554v-1.575h1.555v-1.575h1.555v-1.574h1.554v-3.15h1.555v-1.574h1.555v-3.15h1.555v-3.15h1.554v-6.298h1.555v-15.747H292.3v-4.724h-1.554v-3.15h-1.555v-3.15h-1.555V89.76h-1.555v-3.15h-1.554v-1.575h-1.555v-1.574h-1.555v-1.575h-1.555v-1.575h-3.11v-1.574h-1.554v-4.724h-1.555v-4.725h-1.555v-3.15h-1.554V62.99h-1.555v-3.15h-1.555v-3.15h-1.555v-3.149h-1.555v-3.15h-1.554v-1.574h-1.555v-3.15h-1.555v-1.574h-1.555v-1.575h-1.554v-3.15h-1.555v-1.574h-1.555v-1.575h-1.555v-1.575h-1.555V33.07h-1.554v-1.575h-1.555V29.92h-1.555v-1.575h-1.555v-1.574h-1.554v-1.575h-1.555v-1.575h-3.11v-1.575h-1.555v-1.575h-1.554v-1.574h-3.11v-1.575h-1.555v-1.575h-3.11v-1.574h-3.109v-1.575h-1.555v-1.575h-3.11V9.45h-4.663V7.874h-3.11V6.299h-3.11V4.724h-4.664V3.15h-4.664V1.575h-9.33V0H149.26z" fill="#3b3929"/><path d="M152.369 7.874h-6.22v1.575h-6.218v1.574h-4.665v1.575h-3.11v1.575h-4.664v1.574h-3.11v1.575h-3.109v1.575h-1.554v1.574h-3.11v1.575h-3.11v1.575h-1.555v1.575h-3.109v1.575h-1.555v1.574h-1.555v1.575h-1.554v1.575h-3.11v1.575h-1.555v1.574h-1.555v1.575h-1.554v1.575h-1.555v1.575h-1.555v1.574h-1.555v1.575h-1.555v3.15h-1.554v1.574h-1.555v1.575h-1.555v3.15h-1.555v1.574h-1.554v3.15h-1.555v1.574h-1.555v3.15H77.74v3.149h-1.555v3.15H74.63v4.724h-1.555v3.15H71.52v4.723h-1.555v3.15h-1.554v1.574H65.3v1.575h-1.555v1.575H62.19v1.575h-1.554v3.15h-1.555v1.574h-1.555v3.15h-1.555v3.149h-1.555v20.471h1.555v3.15h1.555v3.149h1.555v1.575h1.555v3.15h1.554v1.574h1.555v1.575h3.11V137h1.555v1.575h1.554v1.575h1.555v6.299h1.555v3.15h1.555v4.724h1.554v3.149h1.555v3.15h1.555v1.574h1.555v3.15h1.555v3.15h1.554v1.574h1.555v3.15h1.555v1.574h1.555v1.575h1.554v1.574h1.555v3.15h1.555v1.575h1.555v1.574h1.555v1.575h1.554v1.575h1.555v1.575h1.555v1.575h3.11v1.574h1.554v1.575h1.555v1.575h3.11v1.574h1.554v1.575h1.555v1.575h3.11v1.574h3.11v1.575h3.11v1.575h3.109v1.574h3.11v1.575h3.109v1.575h4.664v1.575h6.22v1.574h4.664v1.575h6.219v1.575h31.096v-1.575h7.774v-1.575h4.664v-1.574h6.219v-1.575h4.664v-1.575h3.11v-1.575h3.11v-1.574h3.109v-1.575h3.11v-1.575h3.109v-1.574h1.555v-1.575h3.11v-1.575h1.554v-1.574h3.11v-1.575h1.555v-1.575h1.554v-1.574h1.555v-1.575h1.555v-1.575h1.555v-1.575h1.555v-1.575h1.554v-1.574h1.555v-1.575h1.555v-1.575h1.555v-1.575h1.554v-1.574h1.555v-1.575h1.555v-3.15h1.555v-1.574h1.555v-3.15h1.554v-1.574h1.555v-3.15h1.555v-3.15h1.555v-3.149h1.554v-3.15h1.555V149.6h1.555v-4.724h1.555v-4.724h1.555v-3.15h3.11v-1.574h1.554v-1.575h1.555v-1.575h1.554v-1.574h1.555v-1.575h1.555v-3.15h1.555v-3.15h1.555v-4.723h1.554v-14.173h-1.554v-6.298h-1.555V96.06h-1.555v-3.15h-1.555v-1.574h-1.555V89.76h-1.554v-1.575h-1.555V86.61h-1.555v-1.575h-1.555v-1.574h-1.554v-1.575h-1.555v-3.15h-1.555v-6.298h-1.555v-3.15h-1.555v-3.15h-1.554V62.99h-1.555v-3.15h-1.555v-3.15h-1.555v-1.574h-1.554v-3.15h-1.555v-1.575h-1.555v-3.149h-1.555v-1.575h-1.555v-1.574h-1.554v-1.575h-1.555v-3.15h-1.555v-1.574H244.1v-1.575h-1.554v-1.575h-1.555V33.07h-3.11v-1.575h-1.555V29.92h-1.554v-1.575h-1.555v-1.574h-3.11v-1.575h-1.554v-1.575h-1.555v-1.575h-3.11v-1.575h-3.11v-1.574h-3.109v-1.575h-3.11v-1.575h-3.11v-1.574h-3.109v-1.575h-4.664v-1.575h-3.11V9.45h-6.219V7.874h-6.22V6.299h-35.76z" fill="#efdd11"/><path d="M172.581 100.783h4.665v-1.575h1.555v-1.574h1.554v-1.575h1.555v-1.575h1.555v-1.575h1.555v-1.574h1.554V89.76h1.555v-1.575h1.555V86.61h1.555v-1.575h1.555v-1.574h1.554v-1.575h1.555v-1.575h1.555v-1.574h1.555v-1.575h1.554v-1.575h1.555v-1.574h1.555v-1.575h1.555v-1.575h1.555v-1.575h1.554v-1.574h1.555v-1.575h1.555v-1.575h1.555v-1.575h1.555v-1.574h1.554V59.84h1.555v-1.575h1.555V56.69h1.555v-1.574h1.554V53.54h1.555v-1.575h1.555V50.39h1.555v-1.574h1.555v-1.575h1.554v-1.575h1.555v-1.574h-1.555v-1.575h-1.554v-1.575h-1.555V39.37h-1.555v-1.575h-1.555V36.22h-3.11v-1.575h-1.554V33.07h-3.11v-1.575h-3.11V29.92h-3.11v-1.575h-3.108v-1.574h-3.11v-1.575h-4.664v-1.575h-4.665v-1.575h-9.328v-1.575h-12.44zm1.555 20.471h-1.555v80.311h13.993v-1.574h4.665v-1.575h6.219v-1.575h4.664v-1.574h4.665v-1.575h3.109v-1.575h3.11v-1.574h3.109v-1.575h1.555v-1.575h3.11v-1.575h1.554v-1.575h3.11v-1.574h1.555v-1.575h1.555v-1.575h1.554v-1.575h1.555v-1.574h-1.555v-1.575h-1.554v-1.575h-1.555v-1.575h-1.555v-1.574h-1.555v-1.575h-1.555v-1.575h-1.554v-1.574h-1.555v-1.575h-1.555v-1.575h-1.555v-1.574h-1.554v-1.575h-1.555v-1.575h-1.555v-1.575h-1.555v-1.574h-1.555v-1.575h-1.554v-1.575h-1.555v-1.575h-1.555v-1.574h-1.555v-1.575h-1.555v-1.575h-1.554V143.3h-1.555v-1.575h-1.555v-1.574h-1.555v-1.575h-1.554v-1.575h-1.555v-1.574h-1.555v-1.575h-1.555v-1.575h-1.555v-1.574h-1.554v-1.575h-1.555v-1.575h-1.555v-1.574h-1.555v-1.575h-1.554v-1.575h-1.555v-1.575h-1.555v-1.574h-1.555z" fill="#534726"/><path d="M101.061 50.391h-1.555v3.15h-1.555v1.575h-1.554v1.574h-1.555v3.15h-1.555v1.575h-1.555v3.149h-1.555v1.575h-1.554v3.15h-1.555v4.724h-1.555v3.15h-1.555v4.723h-1.554v6.3h-1.555v7.873h-1.555v11.023h79.294v-4.724h-1.554v-1.575h-1.555v-1.575h-1.555v-1.574h-1.555v-1.575h-1.555v-1.575h-1.555v-1.575h-1.554v-1.574h-1.555V89.76h-1.555v-1.575h-1.555V86.61h-1.554v-1.575h-1.555v-1.574h-1.555v-1.575h-1.555v-1.575h-1.555v-1.574h-1.554v-1.575h-1.555v-1.575h-1.555v-1.574h-1.555v-1.575h-1.555v-1.575h-1.554v-1.575h-1.555v-1.574h-1.555v-1.575h-1.555v-1.575h-1.554v-1.575h-1.555v-1.574h-1.555V59.84h-1.555v-1.575H113.5V56.69h-1.555v-1.574h-1.554V53.54h-1.555v-1.575h-1.555V50.39h-1.555v-1.574h-4.664z" fill="#4d4427"/><path d="M163.253 122.829h-3.11v1.575h-1.555v1.575h-1.554v1.574h-1.555v1.575h-1.555v1.575h-1.555v1.574h-1.555v1.575h-1.555v1.575h-1.554V137h-1.555v1.575h-1.555v1.575h-1.555v1.574h-1.554v1.575h-1.555v1.575h-1.555v1.575h-1.555v1.575h-1.555v1.574h-1.554v1.575h-1.555v1.575h-1.555v1.575h-1.555v1.574h-1.555v1.575h-1.554v1.575h-1.555v1.575h-1.555v1.574h-1.555v1.575h-1.554v1.575h-1.555v1.574h-1.555v1.575h-1.555v1.575H113.5v1.574h-1.555v1.575h-1.554v1.575h-1.555v4.724h3.11v1.575h1.554v1.575h1.555v1.574h1.555v1.575h3.11v1.575h1.554v1.575h3.11v1.575h3.11v1.574h3.11v1.575h3.109v1.575h3.11v1.574h4.664v1.575h6.219v1.575h6.219v1.574h12.438V119.68h-3.11z" fill="#534727"/><path d="M234.773 50.391h-1.555v1.575h-1.555v1.575h-1.555v1.575h-1.554v1.574h-1.555v1.575h-1.555v1.575h-1.555v1.575h-1.555v1.574h-1.554v1.575h-1.555v1.575h-1.555v1.575h-1.555v1.574h-1.554v1.575h-1.555v1.575h-1.555v1.575h-1.555v1.574h-1.555v1.575h-1.554v1.575h-1.555v1.574h-1.555v1.575h-1.555v1.575h-1.555v1.574h-1.554v1.575h-1.555v1.575h-1.555v1.575h-1.555v1.575h-1.554v1.574h-1.555v1.575h-1.555v1.575h-1.555v1.575h-1.555v1.574h-1.554v1.575h-1.555v1.575h-1.555v1.574h-1.555v3.15h80.849V96.059h-1.555v-6.3h-1.555v-7.873h-1.554v-3.15h-1.555v-4.723h-1.555v-3.15h-1.555v-3.15h-1.555v-3.149h-1.554v-1.575h-1.555V59.84h-1.555v-1.575h-1.555v-3.15h-1.554v-1.574h-1.555v-1.575h-1.555v-1.575h-1.555v-1.574h-3.11zm-54.418 67.714h1.555v1.575h1.555v1.574h1.555v1.575h1.554v1.575h1.555v1.575h1.555v1.574h1.555v1.575h1.555v1.575h1.554v1.574h1.555v1.575h1.555v1.575h1.555V137h1.554v1.575h1.555v1.575h1.555v1.574h1.555v1.575h1.555v1.575h1.554v1.575h1.555v1.575h1.555v1.574h1.555v1.575h1.555v1.575h1.554v1.575h1.555v1.574h1.555v1.575h1.555v1.575h1.554v1.575h1.555v1.574h1.555v1.575h1.555v1.575h1.555v1.574h1.554v1.575h1.555v1.575h1.555v1.574h1.555v1.575h3.109v-1.575h1.555v-1.574h1.555v-1.575h1.555v-1.575h1.554v-3.15h1.555v-1.574h1.555v-3.15h1.555v-1.574h1.554v-3.15h1.555v-3.149h1.555v-3.15h1.555V143.3h1.555v-3.149h1.554v-7.874h1.555v-7.873h1.555v-9.449h-80.849z" fill="#423e28"/><path d="M155.479 22.046h-9.33v1.575h-6.218v1.575h-3.11v1.575h-3.11v1.574h-4.664v1.575h-1.555v1.575h-3.11v1.575h-3.109v1.574h-1.554v1.575h-3.11v1.575h-1.555v1.575H113.5v1.574h-1.555v1.575h-3.109v3.15h1.555v1.574h1.554v1.575h1.555v1.574h1.555v1.575h1.555v1.575h1.555v1.575h1.555v1.574h1.554v1.575h1.555v1.575h1.555v1.575h1.555v1.574h1.554v1.575h1.555v1.575h1.555v1.575h1.555v1.574h1.555v1.575h1.554v1.575h1.555v1.575h1.555v1.574h1.555v1.575h1.555v1.575h1.554v1.574h1.555v1.575h1.555v1.575h1.555v1.574h1.554v1.575h1.555v1.575h1.555v1.575h1.555v1.575h1.555v1.574h1.555v1.575h1.554v1.575h1.555v1.575h1.555v1.574h1.555v1.575h3.109V20.47H155.48zM79.294 125.979h1.555v7.873h1.555v6.3h1.554v4.723h1.555v3.15h1.555v4.724h1.555v1.575h1.554v3.149h1.555v3.15h1.555v1.574h1.555v3.15h1.555v1.574h1.554v1.575h1.555v1.575h1.555v3.15h3.11v-1.576h1.554v-1.574h1.555v-1.575h1.555v-1.575h1.555v-1.574h1.554v-1.575h1.555v-1.575h1.555v-1.574h1.555v-1.575h1.555v-1.575h1.555v-1.575h1.554v-1.574h1.555v-1.575h1.555v-1.575h1.555v-1.575h1.554v-1.574h1.555v-1.575h1.555v-1.575h1.555V143.3h1.555v-1.575h1.554v-1.574h1.555v-1.575h1.555v-1.575h1.555v-1.574h1.555v-1.575h1.554v-1.575h1.555v-1.574h1.555v-1.575h1.555v-1.575h1.554v-1.574h1.555v-1.575h1.555v-1.575h1.555v-1.575h1.555v-1.574h1.555v-1.575h1.554v-3.15H79.294z" fill="#423a27"/><path d="M234.773 55.116h-1.555v1.574h-1.555v1.575h-1.555v1.575h-1.554v1.575h-1.555v1.574h-1.555v1.575h-1.555v1.575h-1.555v1.575h-1.554v1.574h-1.555v1.575h-1.555v1.575h-1.555v1.575h-1.554v1.574h-1.555v1.575h-1.555v1.575h-1.555v1.574h-1.555v1.575h-1.554v1.575h-1.555v1.574h-1.555v1.575h-1.555v1.575h-1.555v1.575h-1.554v1.575h-1.555v1.574h-1.555v1.575h-1.555v1.575h-1.554v1.575h-1.555v1.574h-1.555v1.575h-1.555v1.575h-1.555v1.574h69.966V92.91h-1.555v-9.448h-1.555v-3.15h-1.555v-4.724h-1.555v-3.15h-1.554v-3.149h-1.555v-3.15h-1.555v-1.574h-1.555v-3.15h-1.554V59.84h-1.555v-3.15h-1.555v-1.574h-1.555V53.54h-3.11zm-46.644 66.138h1.555v1.575h1.555v1.575h1.555v1.575h1.554v1.574h1.555v1.575h1.555v1.575h1.555v1.574h1.554v1.575h1.555v1.575h1.555V137h1.555v1.575h1.555v1.575h1.554v1.574h1.555v1.575h1.555v1.575h1.555v1.575h1.555v1.575h1.554v1.574h1.555v1.575h1.555v1.575h1.555v1.575h1.554v1.574h1.555v1.575h1.555v1.575h1.555v1.575h1.555v1.574h1.554v1.575h1.555v1.575h1.555v1.574h1.555v1.575h3.109v-1.575h1.555v-1.574h1.555v-3.15h1.555v-1.574h1.554v-3.15h1.555v-1.575h1.555v-3.15h1.555V149.6h1.554v-3.149h1.555v-4.725h1.555v-6.298h1.555v-6.3h1.555v-11.022h-68.411zm-85.513-66.138h-1.555v1.574h-1.555v1.575h-1.555v3.15h-1.554v1.574h-1.555v3.15h-1.555v1.575h-1.555v3.149h-1.555v3.15h-1.554v4.724h-1.555v4.724h-1.555v6.299h-1.555v6.299h-1.554v7.873h69.965v-1.574h-1.555v-1.575h-1.555v-1.575h-1.554v-1.574h-1.555v-1.575h-1.555v-1.575h-1.555v-1.575h-1.554v-1.574h-1.555V89.76h-1.555v-1.575h-1.555V86.61h-1.555v-1.575h-1.554v-1.574h-1.555v-1.575h-1.555v-1.575h-1.555v-1.574h-1.555v-1.575h-1.554v-1.575h-1.555v-1.574h-1.555v-1.575h-1.555v-1.575h-1.554v-1.575h-1.555v-1.574h-1.555v-1.575h-1.555v-1.575H113.5v-1.575h-1.555v-1.574h-1.554V59.84h-1.555v-1.575h-1.555V56.69h-1.555v-1.574h-1.554V53.54h-1.555zm54.418-29.92h-9.33v1.575h-6.218v1.574h-3.11v1.575h-3.11v1.575h-3.11v1.575h-3.109v1.574h-3.11v1.575h-3.109v1.575h-1.555v1.575h-3.11v1.574h-1.554v1.575h-1.555v1.575H113.5v1.574h1.555v1.575h1.555v1.575h1.555v1.574h1.555v1.575h1.554v1.575h1.555v1.575h1.555v1.574h1.555v1.575h1.554v1.575h1.555v1.575h1.555v1.574h1.555v1.575h1.555v1.575h1.554v1.575h1.555v1.574h1.555v1.575h1.555v1.575h1.555v1.575h1.554v1.574h1.555v1.575h1.555v1.575h1.555v1.574h1.554v1.575h1.555v1.575h1.555v1.574h1.555v1.575h1.555v1.575h1.555v1.575h1.554v1.575h1.555v1.574h1.555v1.575h1.555V23.62h-6.22zm-74.63 97.633h1.554v9.448h1.555v7.874h1.555v3.15h1.555v3.149h1.554v4.724h1.555v1.575h1.555v3.149h1.555v3.15h1.555v1.575h1.554v3.149h1.555v1.575h1.555v1.574h1.555v1.575h1.555v-1.575h1.554v-1.574h1.555v-1.575h1.555v-1.575h1.555v-1.574h1.554v-1.575h1.555v-1.575h1.555v-1.575h1.555v-1.574h1.555v-1.575h1.555v-1.575h1.554v-1.575h1.555v-1.574h1.555v-1.575h1.555v-1.575h1.554V143.3h1.555v-1.575h1.555v-1.574h1.555v-1.575h1.555v-1.575h1.554v-1.574h1.555v-1.575h1.555v-1.575h1.555v-1.574h1.555v-1.575h1.554v-1.575h1.555v-1.574h1.555v-1.575h1.555v-1.575h1.554v-1.575h1.555v-1.574h1.555v-1.575H82.404zm79.294 6.299h-1.555v1.575h-1.555v1.574h-1.554v1.575h-1.555v1.575h-1.555V137h-1.555v1.575h-1.555v1.575h-1.555v1.574h-1.554v1.575h-1.555v1.575h-1.555v1.575h-1.555v1.575h-1.554v1.574h-1.555v1.575h-1.555v1.575h-1.555v1.575h-1.555v1.574h-1.554v1.575h-1.555v1.575h-1.555v1.575h-1.555v1.574h-1.555v1.575h-1.554v1.575h-1.555v1.574h-1.555v1.575h-1.555v1.575h-1.554v1.574h-1.555v1.575h-1.555v1.575h-1.555v1.575H113.5v1.574h1.555v1.575h1.555v1.575h1.555v1.575h3.11v1.574h1.554v1.575h3.11v1.575h3.11v1.575h3.109v1.575h3.11v1.574h3.109v1.575h6.22v1.575h4.663v1.574h7.775v1.575h6.219v-70.863h-1.555zm15.548-34.644h1.555v-1.575h1.554v-1.574h1.555V89.76h1.555v-1.575h1.555V86.61h1.554v-1.575h1.555v-1.574h1.555v-1.575h1.555v-1.575h1.555v-1.574h1.554v-1.575h1.555v-1.575h1.555v-1.574h1.555v-1.575h1.554v-1.575h1.555v-1.575h1.555v-1.574h1.555v-1.575h1.555v-1.575h1.554v-1.575h1.555v-1.574h1.555V59.84h1.555v-1.575h1.555V56.69h1.554v-1.574h1.555V53.54h1.555v-1.575h1.555V50.39h1.554v-1.574h1.555v-1.575h1.555v-1.575h1.555v-1.574h-1.555v-1.575h-1.555v-1.575h-3.11V39.37h-1.554v-1.575h-1.555V36.22h-3.11v-1.575h-3.11V33.07h-3.109v-1.575h-3.11V29.92h-3.109v-1.575h-6.22v-1.574h-3.108v-1.575h-9.33v-1.575h-6.218zm0 103.932h6.219v-1.575h4.664v-1.574h7.774v-1.575h4.664v-1.575h4.665v-1.574h3.11v-1.575h3.109v-1.575h3.11v-1.575h1.554v-1.575h3.11v-1.574h1.555v-1.575h1.554v-1.575h3.11v-1.575h1.555v-1.574h-1.555v-1.575h-1.555v-1.575h-1.555v-1.575h-1.554v-1.574h-1.555v-1.575h-1.555v-1.575h-1.555v-1.574h-1.554v-1.575h-1.555v-1.575h-1.555v-1.574h-1.555v-1.575h-1.555v-1.575h-1.554v-1.575h-1.555v-1.574h-1.555v-1.575h-1.555v-1.575h-1.555v-1.575h-1.554v-1.574h-1.555v-1.575h-1.555v-1.575h-1.555V143.3h-1.554v-1.575h-1.555v-1.574h-1.555v-1.575h-1.555v-1.575h-1.555v-1.574h-1.554v-1.575h-1.555v-1.575h-1.555v-1.574h-1.555v-1.575h-1.554v-1.575h-1.555z" fill="#efdd11"/><path d="M200.567 280.302h9.329V262.98h1.555v6.298h1.555v6.3h1.555v4.724h7.773v-4.724h1.555v-6.3h1.555v-7.873h1.555v18.897h9.328v-36.219h-13.993v4.724h-1.554v4.725h-1.555v6.298h-1.555v-3.15h-1.555v-9.447h-1.554v-3.15h-13.994zm-59.081-31.495h1.554v9.449h1.555v7.873h1.555v9.449h1.555v4.724h10.883v-4.724h1.555v-7.874h3.11v7.874h1.554v4.724h10.884v-6.3h1.555v-7.873h1.555v-6.299h1.554v-9.448h1.555v-6.299h-9.329v9.449h-1.554v7.873h-3.11v-4.724h-1.555v-11.023h-1.555v-1.575h-6.219v1.575h-1.554v6.299h-1.555v11.023h-1.555v-4.724h-1.555v-6.3h-1.555v-7.873h-9.328z" fill="#3b3929"/><path d="M121.273 244.083h-3.11v1.575h-1.554v1.575h-1.555v1.574H113.5v26.77h1.555v1.575h1.555v1.575h1.555v1.575h4.664v1.575h7.774v-1.575h3.11v-1.575h3.11v-3.15h1.554v-26.77h-1.555v-1.574h-1.555v-1.575h-1.554v-1.575h-3.11v-1.575h-9.329z" fill="#31332b"/><path d="M270.533 280.302h20.212v-1.575h1.554v-1.575h1.555v-1.574h1.555v-26.77h-1.555v-1.575H292.3v-1.575h-1.554v-1.575h-20.212z" fill="#34362b"/><path d="M321.84 244.083h-3.109v1.575h-1.555v1.575h-1.555v3.149h-1.555v29.92h9.33v-7.874h6.218v7.874h9.33v-31.495h-1.556v-3.15h-3.11v-1.574h-3.109v-1.575h-9.329z" fill="#37362b"/><path d="M31.096 280.302h24.876v-9.449H40.424v-3.149h10.884v-9.448h-9.329v-1.575h-1.555v-3.15h15.548v-9.448H31.096z" fill="#3e3a28"/><path d="M240.992 280.302h24.876v-7.874h-13.993v-1.575h-1.555v-3.149h10.884v-9.448h-9.329v-1.575h-1.555v-3.15h15.548v-9.448h-24.876z" fill="#37362b"/><path d="M0 250.382h1.555v3.15H3.11v3.149h1.555v3.15h1.554v3.149h1.555v3.15H9.33v14.172h9.329v-14.173h1.554v-3.15h1.555v-3.149h1.555v-4.724h1.555v-3.15h1.554v-3.149h1.555v-4.724h-9.328v1.575h-1.555v3.15h-1.555v3.149h-1.555v1.575h-1.555v-3.15h-1.554v-4.724H9.329v-1.575H0z" fill="#34362b"/><path d="M87.068 280.302h23.322v-9.449H96.397v-26.77h-9.329z" fill="#3b3929"/><path d="M60.637 280.302h23.321v-7.874H69.965v-28.345h-9.328z" fill="#37362b"/><path d="M300.073 280.302h9.33v-36.219h-9.33z" fill="#3b3929"/><path d="M124.383 253.532h-1.555v1.574h-1.555v15.747h1.555v1.575h6.22v-1.575h1.554v-15.747h-1.555v-1.574h-1.555v-1.575h-3.11zm153.923 17.321h7.774v-17.321h-7.774zm45.089-6.299h6.22v-11.022h-6.22z" fill="#efdd11"/></g></svg>