<svg xmlns="http://www.w3.org/2000/svg" width="125.961" height="26.044" viewBox="0 0 125.96147 26.043867"><g fill-rule="evenodd"><path d="M12.156.185h-.92v.184h-.553v.185h-.553V.74h-.368v.185h-.553v.184h-.368v.185h-.369v.185h-.368v.184H7.92v.185h-.37v.185h-.184v.185H7V2.4h-.184v.185h-.369v.185h-.184v.184h-.184v.185h-.184v.185H5.71v.184h-.185v.185h-.184v.185h-.184v.185h-.184v.184h-.184v.185h-.184v.185H4.42v.184h-.184v.37h-.184v.185h-.184v.184h-.184v.37h-.185v.37h-.184v.184h-.184v.37h-.184v.369h-.184v.37h-.184v.368h-.185v.555H2.21v.554h-.184v.184h-.184v.185h-.184v.185h-.185v.185H1.29v.184h-.184v.185H.921v.185H.737v.37H.553v.369H.368v.369H.184v.37H0v2.216h.184v.554h.184v.37h.185v.369h.184v.37H.92v.184h.184v.185h.184v.184h.184v.185h.185v.185h.184v.184h.184v.185h.184v.554h.184v.37h.185v.554h.184v.37h.184v.369h.184v.37h.184v.184H3.5v.37h.185v.184h.184v.37h.184v.184h.184v.185h.184v.37h.185v.184h.184v.185h.184v.184h.184v.185h.184v.185h.184v.184h.185v.185h.184v.185h.184v.185h.184v.184h.369v.185h.184v.185H7v.184h.368v.185h.184v.185h.369v.184h.368v.185h.184v.185h.369v.185h.552v.184h.369v.185h.552v.185h.553v.184h.552v.185h.921v.185h4.42v-.185h1.106v-.185h.736v-.184h.369v-.185h.552v-.185h.369v-.184h.368v-.185h.368v-.185h.369v-.185h.368v-.184h.184v-.185h.369v-.185h.184v-.184h.368v-.185h.184v-.185h.184v-.184h.369v-.185h.184v-.185h.184v-.185h.184v-.184h.185v-.185h.184v-.185h.184v-.184h.184v-.185h.184v-.37h.185v-.184h.184v-.185h.184v-.37h.184v-.184h.184v-.185h.184v-.37h.185v-.369h.184v-.369h.184v-.37h.184v-.369h.184v-.37h.184v-.553h.185v-.555h.184v-.184h.368v-.185h.184v-.185h.185v-.184h.184v-.185h.184v-.37h.184v-.184h.184v-.37h.184v-.369h.185v-.739h.184v-1.847H29.1v-.554h-.185v-.37h-.184v-.369h-.184v-.185h-.184v-.369h-.184v-.185h-.184V9.79h-.185v-.185h-.184V9.42h-.368v-.185h-.184v-.554h-.185v-.554h-.184v-.37h-.184v-.369h-.184v-.37h-.184V6.65h-.184v-.37h-.185v-.37H25.6v-.184h-.184v-.37h-.184v-.184h-.184v-.185h-.184v-.37h-.185v-.184h-.184v-.185h-.184v-.184h-.184v-.185h-.184v-.185h-.185V3.51h-.184v-.184h-.184V3.14h-.184v-.185h-.184v-.184h-.369v-.185h-.184V2.4h-.184v-.184h-.368v-.185h-.185v-.185h-.368v-.185h-.368v-.184h-.185v-.185h-.368v-.185h-.552V.924h-.369V.739h-.368V.554h-.553V.37h-.552V.185h-1.105V0h-4.789z" fill="#3b3929"/><path d="M12.524.924h-.736v.184h-.737v.185h-.553v.185h-.368v.184h-.553v.185H9.21v.185h-.368v.185h-.184V2.4h-.369v.185H7.92v.185h-.184v.184h-.369v.185h-.184v.185H7v.184h-.184v.185h-.369v.185h-.184v.185h-.184v.184h-.184v.185H5.71v.185h-.185v.184h-.184v.185h-.184v.37h-.184v.184h-.184v.185h-.184v.37H4.42v.184h-.184v.37h-.184v.184h-.184v.37h-.184v.37h-.185v.368h-.184v.555h-.184v.369h-.184v.554h-.184v.37h-.184v.184H2.21v.185h-.184v.185h-.184v.184h-.184v.37h-.185v.185H1.29v.369h-.184v.37H.921v2.4h.184v.37h.184v.37h.184v.184h.185v.37h.184v.184h.184v.185h.368v.185h.185v.184h.184v.185h.184v.739h.184v.37h.184v.553H3.5v.37h.185v.37h.184v.184h.184v.37h.184v.369h.184v.184h.185v.37h.184v.185h.184v.184h.184v.185h.184v.37h.184v.184h.185v.185h.184v.185h.184v.184h.184v.185h.184v.185h.369v.184H7v.185h.184v.185h.368v.185h.185v.184h.184v.185h.368v.185h.369v.184h.368v.185h.368v.185h.369v.184h.368v.185h.553v.185h.736v.185h.553v.184h.736v.185h3.684v-.185h.921v-.184h.553v-.185h.736v-.185h.553v-.185h.368v-.184h.369v-.185h.368v-.185h.368v-.184h.369v-.185h.184v-.185h.368v-.184h.184v-.185h.369v-.185h.184v-.185h.184v-.184h.184v-.185h.184v-.185h.185v-.184h.184v-.185h.184v-.185h.184v-.185h.184v-.184h.185v-.185h.184v-.185h.184v-.184h.184v-.37h.184v-.185h.185v-.369h.184v-.185h.184v-.369h.184v-.37h.184v-.369h.184v-.37h.185v-.369h.184v-.554h.184v-.554h.184v-.37h.368v-.184h.185V15.7h.184v-.184h.184v-.185h.184v-.185h.184v-.37h.185v-.369h.184v-.554h.184v-1.662h-.184v-.739h-.184v-.185h-.185v-.37h-.184v-.184h-.184v-.185h-.184v-.184h-.184v-.185h-.185v-.185h-.184V9.79h-.184v-.185h-.184v-.37h-.184v-.738h-.184v-.37h-.185v-.37h-.184v-.369h-.184v-.37h-.184V6.65h-.184v-.184h-.184v-.37h-.185v-.184h-.184v-.37h-.184v-.184h-.184v-.185h-.184v-.185h-.185v-.37h-.184v-.184h-.184v-.185h-.184v-.184h-.184V3.88h-.369v-.185h-.184V3.51h-.184v-.184h-.184V3.14h-.369v-.185h-.184v-.184h-.184v-.185h-.368V2.4h-.369v-.184h-.368v-.185h-.368v-.185h-.369v-.185h-.368v-.184h-.553v-.185h-.368v-.185h-.737V.924h-.737V.739h-4.236z" fill="#efdd11"/><path d="M14.919 11.821h.552v-.184h.184v-.185h.185v-.185h.184v-.184h.184v-.185h.184v-.185h.184v-.185h.184v-.184h.185v-.185h.184v-.185h.184V9.79h.184v-.185h.184V9.42h.185v-.185h.184v-.184h.184v-.185h.184v-.185h.184v-.184h.184v-.185h.185v-.185h.184v-.185h.184v-.184h.184v-.185h.184v-.185h.185v-.184h.184v-.185h.184v-.185h.184V6.65h.184v-.184h.184V6.28h.185v-.185h.184v-.184h.184v-.185h.184v-.185h.184v-.184h.185v-.185h-.185v-.185h-.184v-.185h-.184v-.184h-.184v-.185h-.184v-.185h-.369v-.184h-.184v-.185h-.368v-.185h-.369V3.51h-.368v-.184h-.368V3.14h-.369v-.185h-.552v-.184h-.553v-.185h-1.105V2.4H14.92zm.184 2.402h-.184v9.42h1.657v-.185h.553v-.185h.737v-.184h.552v-.185h.553v-.185h.368v-.185h.368v-.184h.369v-.185h.184v-.185h.368v-.184h.184v-.185h.369v-.185h.184v-.185h.184v-.184h.184v-.185h.185v-.185h-.185v-.184h-.184v-.185h-.184v-.185h-.184v-.185h-.184v-.184h-.185v-.185h-.184v-.185h-.184v-.184h-.184v-.185h-.184v-.185h-.184v-.184h-.185v-.185h-.184v-.185h-.184v-.185h-.184v-.184h-.184v-.185h-.185v-.185h-.184v-.184h-.184v-.185h-.184v-.185h-.184v-.185h-.184v-.184h-.185v-.185h-.184v-.185h-.184v-.184h-.184v-.185h-.184V15.7h-.185v-.184h-.184v-.185h-.184v-.185h-.184v-.185h-.184v-.184h-.184v-.185h-.185v-.185h-.184v-.184h-.184v-.185h-.184z" fill="#534726"/><path d="M6.446 5.91h-.184v.37h-.184v.185h-.184v.184H5.71v.37h-.185v.185h-.184v.37h-.184v.184h-.184v.37h-.184v.553h-.184v.37H4.42v.554h-.184v.739h-.184v.923h-.184v1.293h9.393v-.554h-.184v-.185h-.184v-.184h-.185v-.185h-.184v-.185h-.184v-.184h-.184v-.185h-.184v-.185h-.184v-.185h-.185v-.184h-.184v-.185h-.184v-.185h-.184V9.79h-.184v-.185h-.184V9.42h-.185v-.185h-.184v-.184h-.184v-.185h-.184v-.185h-.184v-.184h-.185v-.185h-.184v-.185H9.21v-.185h-.184v-.184H8.84v-.185h-.184v-.185h-.185v-.184h-.184v-.185h-.184v-.185H7.92V6.65h-.184v-.184H7.55V6.28h-.184v-.185h-.184v-.184H7v-.185h-.553z" fill="#4d4427"/><path d="M13.814 14.407h-.369v.185h-.184v.185h-.184v.184h-.184v.185h-.185v.185h-.184v.185h-.184v.184h-.184v.185h-.184v.185h-.184v.184h-.185v.185h-.184v.185h-.184v.184h-.184v.185h-.184v.185h-.184v.185h-.185v.184h-.184v.185h-.184v.185h-.184v.184h-.184v.185h-.185v.185h-.184v.185H9.21v.184h-.184v.185H8.84v.185h-.184v.184h-.185v.185h-.184v.185h-.184v.184H7.92v.185h-.184v.185H7.55v.185h-.184v.554h.369v.184h.184v.185h.184v.185h.184v.185h.369v.184h.184v.185h.368v.185h.368v.184h.369v.185h.368v.185h.369v.185h.552v.184h.737v.185h.736v.185h1.474v-9.605h-.368z" fill="#534727"/><path d="M22.286 5.91h-.184v.185h-.184v.185h-.185v.185h-.184v.184h-.184v.185h-.184v.185h-.184v.185h-.185v.184h-.184v.185h-.184v.185h-.184v.184h-.184v.185h-.184v.185h-.185v.185h-.184v.184h-.184v.185h-.184v.185h-.184v.184h-.185v.185h-.184v.185h-.184v.185h-.184v.184h-.184v.185h-.184v.185h-.185v.184h-.184v.185h-.184v.185h-.184v.185h-.184v.184h-.185v.185h-.184v.185h-.184v.184h-.184v.185h-.184v.185h-.184v.37h9.577v-1.294h-.184v-.739h-.184v-.923h-.184v-.37h-.185v-.554h-.184v-.37h-.184v-.369h-.184v-.369h-.184v-.185h-.185v-.37h-.184v-.184h-.184v-.37h-.184V6.28h-.184v-.185h-.185v-.184h-.184v-.185h-.368zm-6.446 7.943h.184v.185h.184v.185h.184v.184h.184v.185h.184v.185h.185v.184h.184v.185h.184v.185h.184v.185h.184v.184h.185v.185h.184v.185h.184v.184h.184v.185h.184v.185h.184v.184h.185v.185h.184v.185h.184v.185h.184v.184h.184v.185h.185v.185h.184v.184h.184v.185h.184v.185h.184v.185h.184v.184h.185v.185h.184v.185h.184v.184h.184v.185h.184v.185h.185v.184h.184v.185h.184v.185h.368v-.185h.184v-.185h.185v-.184h.184v-.185h.184v-.37h.184v-.184h.184v-.37h.185v-.184h.184v-.37h.184v-.369h.184v-.37h.184v-.554h.185v-.369h.184v-.923h.184v-.924h.184v-1.108H15.84z" fill="#423e28"/><path d="M12.893 2.586h-1.105v.185h-.737v.184h-.368v.185h-.369v.185h-.552v.184h-.185v.185H9.21v.185h-.368v.185h-.184v.184h-.369v.185h-.184v.185H7.92v.184h-.184v.185h-.369v.37h.184v.184h.185v.185h.184v.185h.184v.184h.184v.185h.184v.185h.185v.184h.184v.185h.184v.185h.184v.185h.184v.184h.184v.185h.185v.185h.184v.184h.184v.185h.184v.185h.184v.185h.185v.184h.184v.185h.184v.185h.184v.184h.184v.185h.184v.185h.185v.185h.184v.184h.184v.185h.184v.185h.184v.184h.184v.185h.185v.185h.184v.185h.184v.184h.184v.185h.184v.185h.185v.184h.368v-9.42h-1.29zM3.868 14.777h.184v.923h.184v.74h.184v.553h.185v.37h.184v.554h.184v.184h.184v.37h.184v.37h.184v.184h.185v.37h.184v.184h.184v.185h.184v.184h.184v.37h.369v-.185h.184v-.185h.184v-.184h.184v-.185h.184v-.185h.185v-.184h.184v-.185h.184v-.185h.184v-.184h.184v-.185h.185v-.185h.184v-.185h.184v-.184h.184v-.185h.184v-.185h.184v-.184h.185v-.185h.184v-.185h.184v-.185h.184v-.184h.184v-.185h.185v-.185h.184v-.184h.184v-.185h.184V15.7h.184v-.184h.184v-.185h.185v-.185h.184v-.185h.184v-.184h.184v-.185h.184v-.185h.184v-.184h.185v-.185h.184v-.185h.184v-.37H3.868z" fill="#423a27"/><path d="M22.286 6.465h-.184v.184h-.184v.185h-.185v.185h-.184v.185h-.184v.184h-.184v.185h-.184v.185h-.185v.184h-.184v.185h-.184v.185h-.184v.185h-.184v.184h-.184v.185h-.185v.185h-.184v.184h-.184v.185h-.184v.185h-.184v.185h-.185v.184h-.184v.185h-.184v.185h-.184v.184h-.184v.185h-.184v.185h-.185v.185h-.184v.184h-.184v.185h-.184v.185h-.184v.184h-.185v.185h-.184v.185h8.289v-1.293h-.185V9.79h-.184v-.37h-.184v-.554h-.184v-.37h-.184v-.369h-.185v-.37h-.184v-.184h-.184v-.37h-.184V7.02h-.184v-.37h-.185v-.184h-.184V6.28h-.368zm-5.526 7.758h.185v.184h.184v.185h.184v.185h.184v.184h.184v.185h.185v.185h.184v.185h.184v.184h.184v.185h.184v.185h.184v.184h.185v.185h.184v.185h.184v.184h.184v.185h.184v.185h.185v.185h.184v.184h.184v.185h.184v.185h.184v.184h.184v.185h.185v.185h.184v.185h.184v.184h.184v.185h.184v.185h.185v.184h.184v.185h.184v.185h.368v-.185h.184v-.185h.185v-.369h.184v-.185h.184v-.37h.184v-.184h.184v-.37h.185v-.369h.184v-.37h.184v-.553h.184v-.74h.184v-.738h.185v-1.293H16.76zM6.63 6.465h-.184v.184h-.184v.185h-.184v.37h-.184v.184H5.71v.37h-.185v.184h-.184v.37h-.184v.37h-.184v.553h-.184v.555h-.184v.738H4.42v.74h-.184v.923h8.288v-.185h-.184v-.185h-.184v-.184h-.184v-.185h-.184v-.185h-.185v-.184h-.184v-.185h-.184v-.185h-.184v-.185h-.184v-.184h-.184v-.185h-.185v-.185h-.184V9.79h-.184v-.185h-.184V9.42h-.184v-.185h-.185v-.184h-.184v-.185H9.21v-.185h-.184v-.184H8.84v-.185h-.184v-.185h-.185v-.185h-.184v-.184h-.184v-.185H7.92v-.185h-.184v-.184H7.55v-.185h-.184v-.185h-.184V6.65H7v-.184h-.184V6.28H6.63zm6.447-3.51h-1.105v.185h-.737v.185h-.368v.184h-.369v.185h-.368v.185h-.368v.185h-.369v.184h-.368v.185H8.84v.185h-.369v.184h-.184v.185h-.184v.185H7.92v.185h.184v.184h.184v.185h.184v.185h.185v.184h.184v.185h.184v.185h.184v.184h.184v.185h.184v.185h.185v.185h.184v.184h.184v.185h.184v.185h.184v.184h.185v.185h.184v.185h.184v.185h.184v.184h.184v.185h.184v.185h.185v.184h.184v.185h.184v.185h.184v.185h.184v.184h.184v.185h.185v.185h.184v.184h.184v.185h.184v.185h.184v.185h.185V2.77h-.737zM4.236 14.407h.184v1.109h.185v.923h.184v.37h.184v.369h.184v.554h.184v.185h.184v.37h.185v.369h.184v.184h.184v.37h.184v.184h.184v.185h.185v.185h.184v-.185h.184v-.185h.184v-.184h.184v-.185h.184v-.185h.185v-.184h.184v-.185h.184v-.185h.184v-.185h.184v-.184h.185v-.185h.184v-.185h.184v-.184h.184v-.185h.184v-.185h.184v-.185h.185v-.184h.184v-.185h.184v-.185h.184v-.184h.184v-.185h.185V15.7h.184v-.184h.184v-.185h.184v-.185h.184v-.185h.184v-.184h.185v-.185h.184v-.185h.184v-.184h.184v-.185h.184v-.185H4.236zm9.394.739h-.185v.185h-.184v.185h-.184v.184h-.184v.185h-.185v.185h-.184v.184h-.184v.185h-.184v.185h-.184v.184h-.184v.185h-.185v.185h-.184v.185h-.184v.184h-.184v.185h-.184v.185h-.184v.184h-.185v.185h-.184v.185h-.184v.185h-.184v.184h-.184v.185h-.185v.185h-.184v.184H9.21v.185h-.184v.185H8.84v.184h-.184v.185h-.185v.185h-.184v.185h-.184v.184H7.92v.185h.184v.185h.184v.184h.184v.185h.369v.185h.184v.185h.368v.184h.369v.185h.368v.185h.368v.184h.369v.185h.736v.185h.553v.185h.92v.184h.738v-8.312h-.185zm1.841-4.063h.184v-.185h.185v-.185h.184v-.185h.184v-.184h.184v-.185h.184v-.185h.184V9.79h.185v-.185h.184V9.42h.184v-.185h.184v-.184h.184v-.185h.185v-.185h.184v-.184h.184v-.185h.184v-.185h.184v-.185h.184v-.184h.185v-.185h.184v-.185h.184v-.184h.184v-.185h.184v-.185h.185V6.65h.184v-.184h.184V6.28h.184v-.185h.184v-.184h.184v-.185h.185v-.185h.184v-.184h.184v-.185h-.184v-.185h-.184v-.185h-.369v-.184h-.184v-.185h-.184v-.185h-.368v-.184h-.369v-.185h-.368v-.185h-.369V3.51h-.368v-.184h-.737V3.14h-.368v-.185h-1.105v-.184h-.737zm0 12.19h.737v-.184h.552v-.185h.921v-.185h.553v-.185h.552v-.184h.369v-.185h.368v-.185h.369v-.184h.184v-.185h.368v-.185h.184v-.185h.184v-.184h.369v-.185h.184v-.185h-.184v-.184h-.184v-.185h-.185v-.185h-.184v-.185h-.184v-.184h-.184v-.185h-.184v-.185h-.184v-.184h-.185v-.185h-.184v-.185h-.184v-.184h-.184v-.185h-.184v-.185h-.185v-.185h-.184v-.184h-.184v-.185h-.184v-.185h-.184v-.184h-.184v-.185h-.185v-.185h-.184v-.185h-.184v-.184h-.184v-.185h-.184v-.185h-.185v-.184h-.184v-.185h-.184V15.7h-.184v-.184h-.184v-.185h-.184v-.185h-.185v-.185h-.184z" fill="#efdd11"/><path d="M89.365 19.36h2.467v-4.235h.411v1.54h.412v1.54h.41v1.155h2.057v-1.155h.411v-1.54h.411V14.74h.411v4.62h2.468v-8.855h-3.701v1.155h-.411v1.155h-.412v1.54h-.41v-.77h-.412v-2.31h-.411v-.77h-3.7zm-15.625-7.7h.411v2.31h.411v1.925h.411v2.31h.411v1.155h2.879v-1.155h.411V16.28h.822v1.925h.412v1.155h2.878v-1.54h.411v-1.925h.411v-1.54h.412v-2.31h.41v-1.54h-2.466v2.31h-.412v1.925h-.822v-1.155h-.411V10.89h-.411v-.385h-1.645v.385h-.411v1.54h-.412v2.695h-.41V13.97h-.412v-1.54h-.411v-1.925H73.74z" fill="#3b3929"/><path d="M68.394 10.505h-.822v.385h-.411v.385h-.412v.385h-.41v6.545h.41v.384h.412v.385h.41v.386h1.234v.385h2.056v-.385h.823v-.386h.822v-.77h.411V11.66h-.41v-.385h-.412v-.385h-.411v-.385h-.823v-.385h-2.467z" fill="#31332b"/><path d="M107.869 19.36h5.345v-.386h.412v-.385h.41v-.384h.412V11.66h-.411v-.385h-.411v-.385h-.412v-.385h-5.345z" fill="#34362b"/><path d="M121.438 10.505h-.822v.385h-.411v.385h-.411v.77h-.412v7.315h2.467v-1.925h1.645v1.925h2.467v-7.7h-.41v-.77h-.823v-.385h-.823v-.385h-2.467z" fill="#37362b"/><path d="M44.545 19.36h6.579v-2.31h-4.112v-.77h2.878v-2.31h-2.467v-.385h-.411v-.77h4.112v-2.31h-6.58z" fill="#3e3a28"/><path d="M100.056 19.36h6.58v-1.925h-3.702v-.385h-.41v-.77h2.878c-.09-.67-.051-1.53-.042-2.31h-2.426v-.385h-.41v-.77h4.111v-2.31h-6.579c.046 3.155.065 6.192 0 8.855z" fill="#37362b"/><path d="M36.321 12.045h.411v.77h.411v.77h.412v.77h.41v.77h.412v.77h.411v3.465h2.467v-3.465h.411v-.77h.412v-.77h.41V13.2h.412v-.77h.411v-.77h.411v-1.155h-2.467v.385h-.41v.77h-.412v.77h-.411v.385h-.411v-.77h-.412V10.89h-.41v-.385H36.32z" fill="#34362b"/><path d="M59.348 19.36h6.168v-2.31h-3.701v-6.545h-2.467z" fill="#3b3929"/><path d="M52.358 19.36h6.768v-1.925h-4.061v-6.93h-2.707z" fill="#37362b"/><path d="M115.682 19.36h2.467v-8.855h-2.467z" fill="#3b3929"/><path d="M69.217 12.815h-.412v.385h-.41v3.85h.41v.385h1.645v-.385h.411V13.2h-.41v-.385h-.412v-.385h-.822zm40.708 4.235h2.056v-4.235h-2.056zm11.925-1.54h1.644v-2.695h-1.645z" fill="#efdd11"/></g></svg>